<ttFont>
    <TTGlyph name=".notdef" xMin="193" yMin="0" xMax="1034" yMax="1462">
      <contour>
        <pt x="193" y="1462" on="1"/>
        <pt x="1034" y="1462" on="1"/>
        <pt x="1034" y="0" on="1"/>
        <pt x="193" y="0" on="1"/>
      </contour>
      <contour>
        <pt x="297" y="104" on="1"/>
        <pt x="930" y="104" on="1"/>
        <pt x="930" y="1358" on="1"/>
        <pt x="297" y="1358" on="1"/>
      </contour>
    </TTGlyph>
    <TTGlyph name="alef" xMin="66" yMin="0" xMax="1260" yMax="1227">
      <contour>
        <pt x="125" y="1227" on="1"/>
        <pt x="352" y="1227" on="1"/>
        <pt x="803" y="606" on="1"/>
        <pt x="953" y="746" on="0"/>
        <pt x="981" y="1004" on="1"/>
        <pt x="1004" y="1227" on="1"/>
        <pt x="1194" y="1227" on="1"/>
        <pt x="1171" y="1008" on="1"/>
        <pt x="1161" y="901" on="0"/>
        <pt x="1101" y="729" on="0"/>
        <pt x="1002" y="579" on="0"/>
        <pt x="899" y="477" on="1"/>
        <pt x="1260" y="0" on="1"/>
        <pt x="1026" y="0" on="1"/>
        <pt x="498" y="717" on="1"/>
        <pt x="455" y="696" on="0"/>
        <pt x="402" y="633" on="0"/>
        <pt x="365" y="531" on="0"/>
        <pt x="340" y="403" on="1"/>
        <pt x="260" y="0" on="1"/>
        <pt x="66" y="0" on="1"/>
        <pt x="150" y="399" on="1"/>
        <pt x="186" y="570" on="0"/>
        <pt x="246" y="712" on="0"/>
        <pt x="337" y="800" on="0"/>
        <pt x="414" y="831" on="1"/>
      </contour>
    </TTGlyph>
    <TTGlyph name="alefdagesh" xMin="66" yMin="0" xMax="1260" yMax="1227">
      <component glyphName="alef" x="0" y="0" flags="0x200"/>
      <component glyphName="dagesh" x="569" y="-585" flags="0x0"/>
    </TTGlyph>
    <TTGlyph name="aleflamed" xMin="80" yMin="0" xMax="1260" yMax="1665">
      <contour>
        <pt x="238" y="1071" on="1"/>
        <pt x="80" y="1071" on="1"/>
        <pt x="80" y="1665" on="1"/>
        <pt x="266" y="1665" on="1"/>
        <pt x="266" y="1227" on="1"/>
        <pt x="352" y="1227" on="1"/>
        <pt x="803" y="606" on="1"/>
        <pt x="953" y="746" on="0"/>
        <pt x="981" y="1004" on="1"/>
        <pt x="1004" y="1227" on="1"/>
        <pt x="1194" y="1227" on="1"/>
        <pt x="1171" y="1008" on="1"/>
        <pt x="1161" y="901" on="0"/>
        <pt x="1101" y="729" on="0"/>
        <pt x="1002" y="579" on="0"/>
        <pt x="899" y="477" on="1"/>
        <pt x="1260" y="0" on="1"/>
        <pt x="1026" y="0" on="1"/>
      </contour>
    </TTGlyph>
    <TTGlyph name="aleflamedhatafsegol" xMin="80" yMin="-385" xMax="1260" yMax="1665">
      <component glyphName="aleflamed" x="0" y="0" flags="0x200"/>
      <component glyphName="hatafsegol" x="664" y="0" flags="0x0"/>
    </TTGlyph>
    <TTGlyph name="aleflamedsegol" xMin="80" yMin="-385" xMax="1260" yMax="1665">
      <component glyphName="aleflamed" x="0" y="0" flags="0x200"/>
      <component glyphName="segol" x="645" y="0" flags="0x0"/>
    </TTGlyph>
    <TTGlyph name="aleflamedtsere" xMin="80" yMin="-348" xMax="1260" yMax="1665">
      <component glyphName="aleflamed" x="0" y="0" flags="0x200"/>
      <component glyphName="tsere" x="651" y="0" flags="0x0"/>
    </TTGlyph>
    <TTGlyph name="alefmapiq" xMin="66" yMin="0" xMax="1260" yMax="1227">
      <component glyphName="alef" x="0" y="0" flags="0x200"/>
      <component glyphName="dagesh" x="569" y="-585" flags="0x0"/>
    </TTGlyph>
    <TTGlyph name="alefpatah" xMin="66" yMin="-231" xMax="1260" yMax="1227">
      <component glyphName="alef" x="0" y="0" flags="0x200"/>
      <component glyphName="patah" x="643" y="0" flags="0x0"/>
    </TTGlyph>
    <TTGlyph name="alefqamats" xMin="66" yMin="-348" xMax="1260" yMax="1227">
      <component glyphName="alef" x="0" y="0" flags="0x200"/>
      <component glyphName="qamats" x="643" y="0" flags="0x0"/>
    </TTGlyph>
    <TTGlyph name="alefwide" xMin="66" yMin="0" xMax="1260" yMax="1227">
      <component glyphName="alef" x="0" y="0" flags="0x200"/>
    </TTGlyph>
    <TTGlyph name="alt_plussign" xMin="90" yMin="514" xMax="1063" yMax="1128">
      <contour>
        <pt x="1063" y="514" on="1"/>
        <pt x="90" y="514" on="1"/>
        <pt x="90" y="700" on="1"/>
        <pt x="481" y="700" on="1"/>
        <pt x="481" y="1128" on="1"/>
        <pt x="668" y="1128" on="1"/>
        <pt x="668" y="700" on="1"/>
        <pt x="1063" y="700" on="1"/>
      </contour>
    </TTGlyph>
    <TTGlyph name="alternativeayin" xMin="41" yMin="-33" xMax="1090" yMax="1227">
      <component glyphName="ayin" x="0" y="0" flags="0x200"/>
    </TTGlyph>
    <TTGlyph name="alternativelamed" xMin="70" yMin="-45" xMax="987" yMax="1665">
      <component glyphName="lamed" x="0" y="0" flags="0x200"/>
    </TTGlyph>
    <TTGlyph name="ayin" xMin="41" yMin="-33" xMax="1090" yMax="1227">
      <contour>
        <pt x="41" y="162" on="1"/>
        <pt x="317" y="162" on="0"/>
        <pt x="475" y="213" on="1"/>
        <pt x="104" y="1227" on="1"/>
        <pt x="307" y="1227" on="1"/>
        <pt x="635" y="291" on="1"/>
        <pt x="775" y="391" on="0"/>
        <pt x="897" y="810" on="0"/>
        <pt x="897" y="1227" on="1"/>
        <pt x="1090" y="1227" on="1"/>
        <pt x="1090" y="764" on="0"/>
        <pt x="893" y="242" on="0"/>
        <pt x="448" y="-12" on="0"/>
        <pt x="41" y="-33" on="1"/>
      </contour>
    </TTGlyph>
    <TTGlyph name="bet" xMin="82" yMin="0" xMax="1153" yMax="1227">
      <contour>
        <pt x="129" y="1057" on="1"/>
        <pt x="129" y="1227" on="1"/>
        <pt x="506" y="1227" on="1"/>
        <pt x="782" y="1227" on="0"/>
        <pt x="1020" y="991" on="0"/>
        <pt x="1020" y="719" on="1"/>
        <pt x="1020" y="170" on="1"/>
        <pt x="1153" y="170" on="1"/>
        <pt x="1153" y="0" on="1"/>
        <pt x="82" y="0" on="1"/>
        <pt x="82" y="170" on="1"/>
        <pt x="836" y="170" on="1"/>
        <pt x="836" y="721" on="1"/>
        <pt x="836" y="905" on="0"/>
        <pt x="687" y="1057" on="0"/>
        <pt x="504" y="1057" on="1"/>
      </contour>
    </TTGlyph>
    <TTGlyph name="betdagesh" xMin="82" yMin="0" xMax="1153" yMax="1227">
      <component glyphName="bet" x="0" y="0" flags="0x200"/>
      <component glyphName="dagesh" x="467" y="0" flags="0x0"/>
    </TTGlyph>
    <TTGlyph name="betrafe" xMin="82" yMin="0" xMax="1153" yMax="1579">
      <component glyphName="bet" x="0" y="0" flags="0x200"/>
      <component glyphName="rafe" x="516" y="0" flags="0x0"/>
    </TTGlyph>
    <TTGlyph name="dagesh" xMin="-80" yMin="625" xMax="80" yMax="782">
      <contour>
        <pt x="-80" y="702" on="1"/>
        <pt x="-80" y="737" on="0"/>
        <pt x="-32" y="782" on="0"/>
        <pt x="0" y="782" on="1"/>
        <pt x="32" y="782" on="0"/>
        <pt x="80" y="737" on="0"/>
        <pt x="80" y="702" on="1"/>
        <pt x="80" y="670" on="0"/>
        <pt x="32" y="625" on="0"/>
        <pt x="0" y="625" on="1"/>
        <pt x="-32" y="625" on="0"/>
        <pt x="-80" y="670" on="0"/>
      </contour>
    </TTGlyph>
    <TTGlyph name="dalet" xMin="41" yMin="0" xMax="1079" yMax="1227">
      <contour>
        <pt x="926" y="0" on="1"/>
        <pt x="741" y="0" on="1"/>
        <pt x="741" y="1057" on="1"/>
        <pt x="41" y="1057" on="1"/>
        <pt x="41" y="1227" on="1"/>
        <pt x="1079" y="1227" on="1"/>
        <pt x="1079" y="1057" on="1"/>
        <pt x="926" y="1057" on="1"/>
      </contour>
    </TTGlyph>
    <TTGlyph name="daletdagesh" xMin="41" yMin="0" xMax="1079" yMax="1227">
      <component glyphName="dalet" x="0" y="0" flags="0x200"/>
      <component glyphName="dagesh" x="383" y="0" flags="0x0"/>
    </TTGlyph>
    <TTGlyph name="daletwide" xMin="41" yMin="0" xMax="1079" yMax="1227">
      <component glyphName="dalet" x="0" y="0" flags="0x200"/>
    </TTGlyph>
    <TTGlyph name="finalkaf" xMin="39" yMin="-385" xMax="930" yMax="1227">
      <contour>
        <pt x="930" y="-385" on="1"/>
        <pt x="745" y="-385" on="1"/>
        <pt x="745" y="721" on="1"/>
        <pt x="745" y="903" on="0"/>
        <pt x="598" y="1057" on="0"/>
        <pt x="414" y="1057" on="1"/>
        <pt x="39" y="1057" on="1"/>
        <pt x="39" y="1227" on="1"/>
        <pt x="416" y="1227" on="1"/>
        <pt x="692" y="1227" on="0"/>
        <pt x="930" y="991" on="0"/>
        <pt x="930" y="719" on="1"/>
      </contour>
    </TTGlyph>
    <TTGlyph name="finalkafdagesh" xMin="39" yMin="-385" xMax="930" yMax="1227">
      <component glyphName="finalkaf" x="0" y="0" flags="0x200"/>
      <component glyphName="dagesh" x="408" y="0" flags="0x0"/>
    </TTGlyph>
    <TTGlyph name="finalkafqamats" xMin="39" yMin="-385" xMax="930" yMax="1227">
      <component glyphName="finalkaf" x="0" y="0" flags="0x200"/>
      <component glyphName="qamats" x="385" y="842" flags="0x0"/>
    </TTGlyph>
    <TTGlyph name="finalkafsheva" xMin="39" yMin="-385" xMax="930" yMax="1227">
      <component glyphName="finalkaf" x="0" y="0" flags="0x200"/>
      <component glyphName="sheva" x="408" y="811" flags="0x0"/>
    </TTGlyph>
    <TTGlyph name="finalmem" xMin="174" yMin="0" xMax="1225" yMax="1227">
      <contour>
        <pt x="1225" y="0" on="1"/>
        <pt x="174" y="0" on="1"/>
        <pt x="174" y="1227" on="1"/>
        <pt x="711" y="1227" on="1"/>
        <pt x="987" y="1227" on="0"/>
        <pt x="1225" y="991" on="0"/>
        <pt x="1225" y="719" on="1"/>
      </contour>
      <contour>
        <pt x="358" y="1057" on="1"/>
        <pt x="358" y="170" on="1"/>
        <pt x="1040" y="170" on="1"/>
        <pt x="1040" y="721" on="1"/>
        <pt x="1040" y="903" on="0"/>
        <pt x="893" y="1057" on="0"/>
        <pt x="709" y="1057" on="1"/>
      </contour>
    </TTGlyph>
    <TTGlyph name="finalmemwide" xMin="174" yMin="0" xMax="1225" yMax="1227">
      <component glyphName="finalmem" x="0" y="0" flags="0x200"/>
    </TTGlyph>
    <TTGlyph name="finalnun" xMin="174" yMin="-385" xMax="358" yMax="1227">
      <contour>
        <pt x="174" y="1227" on="1"/>
        <pt x="358" y="1227" on="1"/>
        <pt x="358" y="-385" on="1"/>
        <pt x="174" y="-385" on="1"/>
      </contour>
    </TTGlyph>
    <TTGlyph name="finalpe" xMin="133" yMin="-385" xMax="1112" yMax="1227">
      <contour>
        <pt x="598" y="1227" on="1"/>
        <pt x="874" y="1227" on="0"/>
        <pt x="1112" y="993" on="0"/>
        <pt x="1112" y="719" on="1"/>
        <pt x="1112" y="-385" on="1"/>
        <pt x="928" y="-385" on="1"/>
        <pt x="928" y="721" on="1"/>
        <pt x="928" y="905" on="0"/>
        <pt x="779" y="1057" on="0"/>
        <pt x="596" y="1057" on="1"/>
        <pt x="319" y="1057" on="1"/>
        <pt x="319" y="711" on="1"/>
        <pt x="563" y="711" on="1"/>
        <pt x="563" y="541" on="1"/>
        <pt x="133" y="541" on="1"/>
        <pt x="133" y="1227" on="1"/>
      </contour>
    </TTGlyph>
    <TTGlyph name="finalpedagesh" xMin="133" yMin="-385" xMax="1112" yMax="1227">
      <component glyphName="finalpe" x="0" y="0" flags="0x200"/>
      <component glyphName="dagesh" x="565" y="186" flags="0x0"/>
    </TTGlyph>
    <TTGlyph name="finaltsadi" xMin="10" yMin="-385" xMax="981" yMax="1227">
      <contour>
        <pt x="512" y="-385" on="1"/>
        <pt x="328" y="-385" on="1"/>
        <pt x="328" y="545" on="1"/>
        <pt x="328" y="634" on="0"/>
        <pt x="284" y="779" on="0"/>
        <pt x="182" y="966" on="0"/>
        <pt x="10" y="1227" on="1"/>
        <pt x="227" y="1227" on="1"/>
        <pt x="399" y="961" on="0"/>
        <pt x="498" y="735" on="0"/>
        <pt x="508" y="616" on="1"/>
        <pt x="600" y="639" on="0"/>
        <pt x="704" y="719" on="0"/>
        <pt x="757" y="854" on="0"/>
        <pt x="768" y="979" on="1"/>
        <pt x="788" y="1227" on="1"/>
        <pt x="981" y="1227" on="1"/>
        <pt x="954" y="948" on="1"/>
        <pt x="935" y="732" on="0"/>
        <pt x="735" y="515" on="0"/>
        <pt x="512" y="471" on="1"/>
      </contour>
    </TTGlyph>
    <TTGlyph name="geresh" xMin="215" yMin="1030" xMax="584" yMax="1665">
      <contour>
        <pt x="352" y="1030" on="1"/>
        <pt x="215" y="1030" on="1"/>
        <pt x="352" y="1665" on="1"/>
        <pt x="584" y="1665" on="1"/>
      </contour>
    </TTGlyph>
    <TTGlyph name="gershayim" xMin="215" yMin="1030" xMax="1030" yMax="1665">
      <contour>
        <pt x="352" y="1030" on="1"/>
        <pt x="215" y="1030" on="1"/>
        <pt x="352" y="1665" on="1"/>
        <pt x="584" y="1665" on="1"/>
      </contour>
      <contour>
        <pt x="799" y="1030" on="1"/>
        <pt x="662" y="1030" on="1"/>
        <pt x="799" y="1665" on="1"/>
        <pt x="1030" y="1665" on="1"/>
      </contour>
    </TTGlyph>
    <TTGlyph name="gimel" xMin="63" yMin="0" xMax="813" yMax="1227">
      <contour>
        <pt x="260" y="1227" on="1"/>
        <pt x="357" y="1227" on="0"/>
        <pt x="462" y="1196" on="0"/>
        <pt x="530" y="1127" on="0"/>
        <pt x="587" y="987" on="0"/>
        <pt x="639" y="762" on="1"/>
        <pt x="813" y="0" on="1"/>
        <pt x="631" y="0" on="1"/>
        <pt x="518" y="504" on="1"/>
        <pt x="434" y="483" on="0"/>
        <pt x="357" y="423" on="0"/>
        <pt x="307" y="305" on="0"/>
        <pt x="285" y="180" on="1"/>
        <pt x="252" y="0" on="1"/>
        <pt x="63" y="0" on="1"/>
        <pt x="98" y="182" on="1"/>
        <pt x="122" y="314" on="0"/>
        <pt x="168" y="448" on="0"/>
        <pt x="240" y="540" on="0"/>
        <pt x="348" y="601" on="0"/>
        <pt x="487" y="639" on="1"/>
        <pt x="437" y="851" on="0"/>
        <pt x="385" y="999" on="0"/>
        <pt x="323" y="1057" on="0"/>
        <pt x="266" y="1057" on="1"/>
        <pt x="131" y="1057" on="1"/>
        <pt x="131" y="1227" on="1"/>
      </contour>
    </TTGlyph>
    <TTGlyph name="gimeldagesh" xMin="63" yMin="0" xMax="813" yMax="1227">
      <component glyphName="gimel" x="0" y="0" flags="0x200"/>
      <component glyphName="dagesh" x="201" y="76" flags="0x0"/>
    </TTGlyph>
    <TTGlyph name="hatafpatah" xMin="-270" yMin="-385" xMax="272" yMax="-18">
      <contour>
        <pt x="-270" y="-162" on="1"/>
        <pt x="-270" y="-53" on="1"/>
        <pt x="57" y="-53" on="1"/>
        <pt x="57" y="-162" on="1"/>
      </contour>
      <contour>
        <pt x="113" y="-98" on="1"/>
        <pt x="113" y="-64" on="0"/>
        <pt x="158" y="-18" on="0"/>
        <pt x="193" y="-18" on="1"/>
        <pt x="225" y="-18" on="0"/>
        <pt x="272" y="-64" on="0"/>
        <pt x="272" y="-98" on="1"/>
        <pt x="272" y="-130" on="0"/>
        <pt x="225" y="-176" on="0"/>
        <pt x="193" y="-176" on="1"/>
        <pt x="158" y="-176" on="0"/>
        <pt x="113" y="-130" on="0"/>
      </contour>
      <contour>
        <pt x="113" y="-305" on="1"/>
        <pt x="113" y="-273" on="0"/>
        <pt x="158" y="-225" on="0"/>
        <pt x="190" y="-225" on="1"/>
        <pt x="225" y="-225" on="0"/>
        <pt x="270" y="-273" on="0"/>
        <pt x="270" y="-305" on="1"/>
        <pt x="270" y="-339" on="0"/>
        <pt x="225" y="-385" on="0"/>
        <pt x="190" y="-385" on="1"/>
        <pt x="158" y="-385" on="0"/>
        <pt x="113" y="-339" on="0"/>
      </contour>
    </TTGlyph>
    <TTGlyph name="hatafqamats" xMin="-270" yMin="-385" xMax="272" yMax="-18">
      <contour>
        <pt x="-160" y="-276" on="1"/>
        <pt x="-160" y="-162" on="1"/>
        <pt x="-270" y="-162" on="1"/>
        <pt x="-270" y="-53" on="1"/>
        <pt x="57" y="-53" on="1"/>
        <pt x="57" y="-162" on="1"/>
        <pt x="-49" y="-162" on="1"/>
        <pt x="-49" y="-276" on="1"/>
      </contour>
      <contour>
        <pt x="113" y="-98" on="1"/>
        <pt x="113" y="-64" on="0"/>
        <pt x="158" y="-18" on="0"/>
        <pt x="193" y="-18" on="1"/>
        <pt x="225" y="-18" on="0"/>
        <pt x="272" y="-64" on="0"/>
        <pt x="272" y="-98" on="1"/>
        <pt x="272" y="-130" on="0"/>
        <pt x="225" y="-176" on="0"/>
        <pt x="193" y="-176" on="1"/>
        <pt x="158" y="-176" on="0"/>
        <pt x="113" y="-130" on="0"/>
      </contour>
      <contour>
        <pt x="113" y="-305" on="1"/>
        <pt x="113" y="-273" on="0"/>
        <pt x="158" y="-225" on="0"/>
        <pt x="190" y="-225" on="1"/>
        <pt x="225" y="-225" on="0"/>
        <pt x="270" y="-273" on="0"/>
        <pt x="270" y="-305" on="1"/>
        <pt x="270" y="-339" on="0"/>
        <pt x="225" y="-385" on="0"/>
        <pt x="190" y="-385" on="1"/>
        <pt x="158" y="-385" on="0"/>
        <pt x="113" y="-339" on="0"/>
      </contour>
    </TTGlyph>
    <TTGlyph name="hatafsegol" xMin="-301" yMin="-385" xMax="301" yMax="-18">
      <contour>
        <pt x="-301" y="-96" on="1"/>
        <pt x="-301" y="-64" on="0"/>
        <pt x="-255" y="-18" on="0"/>
        <pt x="-223" y="-18" on="1"/>
        <pt x="-189" y="-18" on="0"/>
        <pt x="-143" y="-64" on="0"/>
        <pt x="-143" y="-96" on="1"/>
        <pt x="-143" y="-130" on="0"/>
        <pt x="-189" y="-176" on="0"/>
        <pt x="-223" y="-176" on="1"/>
        <pt x="-255" y="-176" on="0"/>
        <pt x="-301" y="-130" on="0"/>
      </contour>
      <contour>
        <pt x="-72" y="-96" on="1"/>
        <pt x="-72" y="-64" on="0"/>
        <pt x="-26" y="-18" on="0"/>
        <pt x="6" y="-18" on="1"/>
        <pt x="40" y="-18" on="0"/>
        <pt x="86" y="-64" on="0"/>
        <pt x="86" y="-96" on="1"/>
        <pt x="86" y="-130" on="0"/>
        <pt x="40" y="-176" on="0"/>
        <pt x="6" y="-176" on="1"/>
        <pt x="-26" y="-176" on="0"/>
        <pt x="-72" y="-130" on="0"/>
      </contour>
      <contour>
        <pt x="-186" y="-305" on="1"/>
        <pt x="-186" y="-271" on="0"/>
        <pt x="-141" y="-225" on="0"/>
        <pt x="-109" y="-225" on="1"/>
        <pt x="-74" y="-225" on="0"/>
        <pt x="-29" y="-271" on="0"/>
        <pt x="-29" y="-305" on="1"/>
        <pt x="-29" y="-337" on="0"/>
        <pt x="-74" y="-385" on="0"/>
        <pt x="-109" y="-385" on="1"/>
        <pt x="-141" y="-385" on="0"/>
        <pt x="-186" y="-337" on="0"/>
      </contour>
      <contour>
        <pt x="143" y="-98" on="1"/>
        <pt x="143" y="-64" on="0"/>
        <pt x="189" y="-18" on="0"/>
        <pt x="221" y="-18" on="1"/>
        <pt x="255" y="-18" on="0"/>
        <pt x="301" y="-64" on="0"/>
        <pt x="301" y="-98" on="1"/>
        <pt x="301" y="-130" on="0"/>
        <pt x="255" y="-176" on="0"/>
        <pt x="221" y="-176" on="1"/>
        <pt x="189" y="-176" on="0"/>
        <pt x="143" y="-130" on="0"/>
      </contour>
      <contour>
        <pt x="141" y="-305" on="1"/>
        <pt x="141" y="-271" on="0"/>
        <pt x="189" y="-225" on="0"/>
        <pt x="221" y="-225" on="1"/>
        <pt x="253" y="-225" on="0"/>
        <pt x="301" y="-273" on="0"/>
        <pt x="301" y="-305" on="1"/>
        <pt x="301" y="-337" on="0"/>
        <pt x="254" y="-385" on="0"/>
        <pt x="221" y="-385" on="1"/>
        <pt x="187" y="-385" on="0"/>
        <pt x="141" y="-339" on="0"/>
      </contour>
    </TTGlyph>
    <TTGlyph name="he" xMin="152" yMin="0" xMax="1135" yMax="1227">
      <contour>
        <pt x="356" y="0" on="1"/>
        <pt x="172" y="0" on="1"/>
        <pt x="172" y="797" on="1"/>
        <pt x="356" y="797" on="1"/>
      </contour>
      <contour>
        <pt x="1135" y="0" on="1"/>
        <pt x="950" y="0" on="1"/>
        <pt x="950" y="721" on="1"/>
        <pt x="950" y="905" on="0"/>
        <pt x="801" y="1057" on="0"/>
        <pt x="618" y="1057" on="1"/>
        <pt x="152" y="1057" on="1"/>
        <pt x="152" y="1227" on="1"/>
        <pt x="621" y="1227" on="1"/>
        <pt x="897" y="1227" on="0"/>
        <pt x="1135" y="991" on="0"/>
        <pt x="1135" y="719" on="1"/>
      </contour>
    </TTGlyph>
    <TTGlyph name="hedagesh" xMin="152" yMin="0" xMax="1135" yMax="1227">
      <component glyphName="he" x="0" y="0" flags="0x200"/>
      <component glyphName="dagesh" x="641" y="0" flags="0x0"/>
    </TTGlyph>
    <TTGlyph name="het" xMin="174" yMin="0" xMax="1184" yMax="1227">
      <contour>
        <pt x="999" y="721" on="1"/>
        <pt x="999" y="903" on="0"/>
        <pt x="852" y="1057" on="0"/>
        <pt x="668" y="1057" on="1"/>
        <pt x="358" y="1057" on="1"/>
        <pt x="358" y="0" on="1"/>
        <pt x="174" y="0" on="1"/>
        <pt x="174" y="1227" on="1"/>
        <pt x="670" y="1227" on="1"/>
        <pt x="946" y="1227" on="0"/>
        <pt x="1184" y="991" on="0"/>
        <pt x="1184" y="719" on="1"/>
        <pt x="1184" y="0" on="1"/>
        <pt x="999" y="0" on="1"/>
      </contour>
    </TTGlyph>
    <TTGlyph name="hewide" xMin="152" yMin="0" xMax="1135" yMax="1227">
      <component glyphName="he" x="0" y="0" flags="0x200"/>
    </TTGlyph>
    <TTGlyph name="hiriq" xMin="-80" yMin="-348" xMax="80" yMax="-190">
      <contour>
        <pt x="-80" y="-270" on="1"/>
        <pt x="-80" y="-237" on="0"/>
        <pt x="-33" y="-190" on="0"/>
        <pt x="0" y="-190" on="1"/>
        <pt x="34" y="-190" on="0"/>
        <pt x="80" y="-238" on="0"/>
        <pt x="80" y="-270" on="1"/>
        <pt x="80" y="-302" on="0"/>
        <pt x="32" y="-348" on="0"/>
        <pt x="0" y="-348" on="1"/>
        <pt x="-32" y="-348" on="0"/>
        <pt x="-80" y="-302" on="0"/>
      </contour>
    </TTGlyph>
    <TTGlyph name="holam" xMin="-80" yMin="1446" xMax="80" yMax="1606">
      <contour>
        <pt x="-80" y="1526" on="1"/>
        <pt x="-80" y="1558" on="0"/>
        <pt x="-32" y="1606" on="0"/>
        <pt x="0" y="1606" on="1"/>
        <pt x="32" y="1606" on="0"/>
        <pt x="80" y="1558" on="0"/>
        <pt x="80" y="1526" on="1"/>
        <pt x="80" y="1494" on="0"/>
        <pt x="33" y="1446" on="0"/>
        <pt x="0" y="1446" on="1"/>
        <pt x="-34" y="1446" on="0"/>
        <pt x="-80" y="1494" on="0"/>
      </contour>
    </TTGlyph>
    <TTGlyph name="kaf" xMin="80" yMin="0" xMax="963" yMax="1227">
      <contour>
        <pt x="963" y="596" on="1"/>
        <pt x="963" y="0" on="0"/>
        <pt x="399" y="0" on="1"/>
        <pt x="80" y="0" on="1"/>
        <pt x="80" y="170" on="1"/>
        <pt x="403" y="170" on="1"/>
        <pt x="594" y="170" on="0"/>
        <pt x="776" y="382" on="0"/>
        <pt x="776" y="594" on="1"/>
        <pt x="776" y="633" on="1"/>
        <pt x="776" y="846" on="0"/>
        <pt x="593" y="1057" on="0"/>
        <pt x="403" y="1057" on="1"/>
        <pt x="80" y="1057" on="1"/>
        <pt x="80" y="1227" on="1"/>
        <pt x="399" y="1227" on="1"/>
        <pt x="963" y="1227" on="0"/>
        <pt x="963" y="631" on="1"/>
      </contour>
    </TTGlyph>
    <TTGlyph name="kafdagesh" xMin="80" yMin="0" xMax="963" yMax="1227">
      <component glyphName="kaf" x="0" y="0" flags="0x200"/>
      <component glyphName="dagesh" x="465" y="-69" flags="0x0"/>
    </TTGlyph>
    <TTGlyph name="kafrafe" xMin="80" yMin="0" xMax="963" yMax="1579">
      <component glyphName="kaf" x="0" y="0" flags="0x200"/>
      <component glyphName="rafe" x="469" y="0" flags="0x0"/>
    </TTGlyph>
    <TTGlyph name="kafwide" xMin="80" yMin="0" xMax="963" yMax="1227">
      <component glyphName="kaf" x="0" y="0" flags="0x200"/>
    </TTGlyph>
    <TTGlyph name="lamed" xMin="70" yMin="-45" xMax="987" yMax="1665">
      <contour>
        <pt x="193" y="162" on="1"/>
        <pt x="384" y="233" on="0"/>
        <pt x="658" y="450" on="0"/>
        <pt x="801" y="706" on="0"/>
        <pt x="801" y="838" on="1"/>
        <pt x="801" y="1057" on="0"/>
        <pt x="567" y="1057" on="1"/>
        <pt x="70" y="1057" on="1"/>
        <pt x="70" y="1665" on="1"/>
        <pt x="254" y="1665" on="1"/>
        <pt x="254" y="1227" on="1"/>
        <pt x="586" y="1227" on="1"/>
        <pt x="987" y="1227" on="0"/>
        <pt x="987" y="870" on="1"/>
        <pt x="987" y="578" on="0"/>
        <pt x="557" y="85" on="0"/>
        <pt x="193" y="-45" on="1"/>
      </contour>
    </TTGlyph>
    <TTGlyph name="lameddagesh" xMin="70" yMin="-45" xMax="987" yMax="1665">
      <component glyphName="lamed" x="0" y="0" flags="0x200"/>
      <component glyphName="dagesh" x="428" y="16" flags="0x0"/>
    </TTGlyph>
    <TTGlyph name="lamedholam" xMin="-149" yMin="-45" xMax="987" yMax="1665">
      <component glyphName="lamed" x="0" y="0" flags="0x200"/>
      <component glyphName="holam" x="-69" y="0" flags="0x0"/>
    </TTGlyph>
    <TTGlyph name="lamedholamdagesh" xMin="-149" yMin="-45" xMax="987" yMax="1665">
      <component glyphName="lamed" x="0" y="0" flags="0x200"/>
      <component glyphName="holam" x="-69" y="0" flags="0x0"/>
      <component glyphName="dagesh" x="426" y="20" flags="0x0"/>
    </TTGlyph>
    <TTGlyph name="lamedwide" xMin="70" yMin="-45" xMax="987" yMax="1665">
      <component glyphName="lamed" x="0" y="0" flags="0x200"/>
    </TTGlyph>
    <TTGlyph name="lowerdot" xMin="-80" yMin="-406" xMax="80" yMax="-248">
      <contour>
        <pt x="-80" y="-328" on="1"/>
        <pt x="-80" y="-295" on="0"/>
        <pt x="-33" y="-248" on="0"/>
        <pt x="0" y="-248" on="1"/>
        <pt x="34" y="-248" on="0"/>
        <pt x="80" y="-296" on="0"/>
        <pt x="80" y="-328" on="1"/>
        <pt x="80" y="-360" on="0"/>
        <pt x="32" y="-406" on="0"/>
        <pt x="0" y="-406" on="1"/>
        <pt x="-32" y="-406" on="0"/>
        <pt x="-80" y="-360" on="0"/>
      </contour>
    </TTGlyph>
    <TTGlyph name="maqaf" xMin="133" yMin="1145" xMax="705" yMax="1356">
      <contour>
        <pt x="133" y="1356" on="1"/>
        <pt x="705" y="1356" on="1"/>
        <pt x="705" y="1145" on="1"/>
        <pt x="133" y="1145" on="1"/>
      </contour>
    </TTGlyph>
    <TTGlyph name="mem" xMin="55" yMin="0" xMax="1243" yMax="1247">
      <contour>
        <pt x="778" y="1247" on="1"/>
        <pt x="1020" y="1247" on="0"/>
        <pt x="1243" y="952" on="0"/>
        <pt x="1243" y="631" on="1"/>
        <pt x="1243" y="0" on="1"/>
        <pt x="641" y="0" on="1"/>
        <pt x="641" y="170" on="1"/>
        <pt x="1057" y="170" on="1"/>
        <pt x="1057" y="608" on="1"/>
        <pt x="1057" y="853" on="0"/>
        <pt x="931" y="1075" on="0"/>
        <pt x="780" y="1075" on="1"/>
        <pt x="645" y="1075" on="0"/>
        <pt x="471" y="830" on="0"/>
        <pt x="397" y="522" on="1"/>
        <pt x="272" y="0" on="1"/>
        <pt x="74" y="0" on="1"/>
        <pt x="211" y="537" on="1"/>
        <pt x="258" y="724" on="0"/>
        <pt x="305" y="842" on="1"/>
        <pt x="55" y="1227" on="1"/>
        <pt x="272" y="1227" on="1"/>
        <pt x="397" y="1024" on="1"/>
        <pt x="475" y="1142" on="0"/>
        <pt x="653" y="1247" on="0"/>
      </contour>
    </TTGlyph>
    <TTGlyph name="memdagesh" xMin="55" yMin="0" xMax="1243" yMax="1247">
      <component glyphName="mem" x="0" y="0" flags="0x200"/>
      <component glyphName="dagesh" x="760" y="16" flags="0x0"/>
    </TTGlyph>
    <TTGlyph name="meteg" xMin="-55" yMin="-348" xMax="55" yMax="-125">
      <contour>
        <pt x="-55" y="-348" on="1"/>
        <pt x="-55" y="-125" on="1"/>
        <pt x="55" y="-125" on="1"/>
        <pt x="55" y="-348" on="1"/>
      </contour>
    </TTGlyph>
    <TTGlyph name="nun" xMin="72" yMin="0" xMax="633" yMax="1227">
      <contour>
        <pt x="633" y="0" on="1"/>
        <pt x="72" y="0" on="1"/>
        <pt x="72" y="170" on="1"/>
        <pt x="449" y="170" on="1"/>
        <pt x="449" y="700" on="1"/>
        <pt x="449" y="860" on="0"/>
        <pt x="416" y="998" on="0"/>
        <pt x="338" y="1057" on="0"/>
        <pt x="264" y="1057" on="1"/>
        <pt x="129" y="1057" on="1"/>
        <pt x="129" y="1227" on="1"/>
        <pt x="258" y="1227" on="1"/>
        <pt x="418" y="1227" on="0"/>
        <pt x="565" y="1138" on="0"/>
        <pt x="633" y="935" on="0"/>
        <pt x="633" y="752" on="1"/>
      </contour>
    </TTGlyph>
    <TTGlyph name="nundagesh" xMin="72" yMin="0" xMax="633" yMax="1227">
      <component glyphName="nun" x="0" y="0" flags="0x200"/>
      <component glyphName="dagesh" x="201" y="0" flags="0x0"/>
    </TTGlyph>
    <TTGlyph name="paseq" xMin="500" yMin="-416" xMax="653" yMax="2007">
      <contour>
        <pt x="500" y="-416" on="1"/>
        <pt x="500" y="2007" on="1"/>
        <pt x="653" y="2007" on="1"/>
        <pt x="653" y="-416" on="1"/>
      </contour>
    </TTGlyph>
    <TTGlyph name="patah" xMin="-164" yMin="-231" xMax="164" yMax="-125">
      <contour>
        <pt x="-164" y="-125" on="1"/>
        <pt x="164" y="-125" on="1"/>
        <pt x="164" y="-231" on="1"/>
        <pt x="-164" y="-231" on="1"/>
      </contour>
    </TTGlyph>
    <TTGlyph name="pe" xMin="143" yMin="0" xMax="1137" yMax="1227">
      <contour>
        <pt x="950" y="682" on="1"/>
        <pt x="950" y="871" on="0"/>
        <pt x="784" y="1057" on="0"/>
        <pt x="606" y="1057" on="1"/>
        <pt x="330" y="1057" on="1"/>
        <pt x="330" y="711" on="1"/>
        <pt x="573" y="711" on="1"/>
        <pt x="573" y="541" on="1"/>
        <pt x="143" y="541" on="1"/>
        <pt x="143" y="1227" on="1"/>
        <pt x="608" y="1227" on="1"/>
        <pt x="876" y="1227" on="0"/>
        <pt x="1137" y="960" on="0"/>
        <pt x="1137" y="678" on="1"/>
        <pt x="1137" y="596" on="1"/>
        <pt x="1137" y="0" on="0"/>
        <pt x="573" y="0" on="1"/>
        <pt x="154" y="0" on="1"/>
        <pt x="154" y="170" on="1"/>
        <pt x="578" y="170" on="1"/>
        <pt x="768" y="170" on="0"/>
        <pt x="950" y="381" on="0"/>
        <pt x="950" y="594" on="1"/>
      </contour>
    </TTGlyph>
    <TTGlyph name="pedagesh" xMin="143" yMin="0" xMax="1137" yMax="1227">
      <component glyphName="pe" x="0" y="0" flags="0x200"/>
      <component glyphName="dagesh" x="557" y="180" flags="0x0"/>
    </TTGlyph>
    <TTGlyph name="perafe" xMin="143" yMin="0" xMax="1137" yMax="1579">
      <component glyphName="pe" x="0" y="0" flags="0x200"/>
      <component glyphName="rafe" x="578" y="0" flags="0x0"/>
    </TTGlyph>
    <TTGlyph name="qamats" xMin="-164" yMin="-348" xMax="164" yMax="-125">
      <contour>
        <pt x="-53" y="-348" on="1"/>
        <pt x="-53" y="-231" on="1"/>
        <pt x="-164" y="-231" on="1"/>
        <pt x="-164" y="-125" on="1"/>
        <pt x="164" y="-125" on="1"/>
        <pt x="164" y="-231" on="1"/>
        <pt x="57" y="-231" on="1"/>
        <pt x="57" y="-348" on="1"/>
      </contour>
    </TTGlyph>
    <TTGlyph name="qamatsqatan" xMin="53" yMin="-385" xMax="485" yMax="-98">
      <contour>
        <pt x="485" y="-205" on="1"/>
        <pt x="305" y="-205" on="1"/>
        <pt x="324" y="-365" on="1"/>
        <pt x="324" y="-385" on="1"/>
        <pt x="215" y="-385" on="1"/>
        <pt x="215" y="-365" on="1"/>
        <pt x="231" y="-205" on="1"/>
        <pt x="53" y="-205" on="1"/>
        <pt x="53" y="-98" on="1"/>
        <pt x="485" y="-98" on="1"/>
      </contour>
    </TTGlyph>
    <TTGlyph name="qof" xMin="123" yMin="-385" xMax="1096" yMax="1227">
      <contour>
        <pt x="358" y="797" on="1"/>
        <pt x="358" y="-385" on="1"/>
        <pt x="174" y="-385" on="1"/>
        <pt x="174" y="797" on="1"/>
      </contour>
      <contour>
        <pt x="123" y="1227" on="1"/>
        <pt x="641" y="1227" on="1"/>
        <pt x="888" y="1227" on="0"/>
        <pt x="1096" y="1050" on="0"/>
        <pt x="1096" y="846" on="1"/>
        <pt x="1096" y="564" on="0"/>
        <pt x="761" y="93" on="0"/>
        <pt x="475" y="-27" on="1"/>
        <pt x="475" y="184" on="1"/>
        <pt x="684" y="278" on="0"/>
        <pt x="909" y="613" on="0"/>
        <pt x="909" y="821" on="1"/>
        <pt x="909" y="955" on="0"/>
        <pt x="792" y="1057" on="0"/>
        <pt x="649" y="1057" on="1"/>
        <pt x="123" y="1057" on="1"/>
      </contour>
    </TTGlyph>
    <TTGlyph name="qofdagesh" xMin="123" yMin="-385" xMax="1096" yMax="1227">
      <component glyphName="qof" x="0" y="0" flags="0x200"/>
      <component glyphName="dagesh" x="596" y="100" flags="0x0"/>
    </TTGlyph>
    <TTGlyph name="qubuts" xMin="-238" yMin="-385" xMax="240" yMax="-16">
      <contour>
        <pt x="-238" y="-96" on="1"/>
        <pt x="-238" y="-62" on="0"/>
        <pt x="-192" y="-16" on="0"/>
        <pt x="-160" y="-16" on="1"/>
        <pt x="-126" y="-16" on="0"/>
        <pt x="-80" y="-62" on="0"/>
        <pt x="-80" y="-96" on="1"/>
        <pt x="-80" y="-128" on="0"/>
        <pt x="-126" y="-174" on="0"/>
        <pt x="-160" y="-174" on="1"/>
        <pt x="-192" y="-174" on="0"/>
        <pt x="-238" y="-128" on="0"/>
      </contour>
      <contour>
        <pt x="-80" y="-201" on="1"/>
        <pt x="-80" y="-169" on="0"/>
        <pt x="-32" y="-121" on="0"/>
        <pt x="0" y="-121" on="1"/>
        <pt x="32" y="-121" on="0"/>
        <pt x="80" y="-169" on="0"/>
        <pt x="80" y="-201" on="1"/>
        <pt x="80" y="-233" on="0"/>
        <pt x="33" y="-281" on="0"/>
        <pt x="0" y="-281" on="1"/>
        <pt x="-34" y="-281" on="0"/>
        <pt x="-80" y="-233" on="0"/>
      </contour>
      <contour>
        <pt x="80" y="-305" on="1"/>
        <pt x="80" y="-271" on="0"/>
        <pt x="128" y="-225" on="0"/>
        <pt x="160" y="-225" on="1"/>
        <pt x="192" y="-225" on="0"/>
        <pt x="240" y="-273" on="0"/>
        <pt x="240" y="-305" on="1"/>
        <pt x="240" y="-337" on="0"/>
        <pt x="193" y="-385" on="0"/>
        <pt x="160" y="-385" on="1"/>
        <pt x="126" y="-385" on="0"/>
        <pt x="80" y="-339" on="0"/>
      </contour>
    </TTGlyph>
    <TTGlyph name="rafe" xMin="-164" yMin="1473" xMax="164" yMax="1579">
      <contour>
        <pt x="-164" y="1579" on="1"/>
        <pt x="164" y="1579" on="1"/>
        <pt x="164" y="1473" on="1"/>
        <pt x="-164" y="1473" on="1"/>
      </contour>
    </TTGlyph>
    <TTGlyph name="resh" xMin="39" yMin="0" xMax="930" yMax="1227">
      <contour>
        <pt x="930" y="0" on="1"/>
        <pt x="745" y="0" on="1"/>
        <pt x="745" y="721" on="1"/>
        <pt x="745" y="903" on="0"/>
        <pt x="598" y="1057" on="0"/>
        <pt x="414" y="1057" on="1"/>
        <pt x="39" y="1057" on="1"/>
        <pt x="39" y="1227" on="1"/>
        <pt x="416" y="1227" on="1"/>
        <pt x="692" y="1227" on="0"/>
        <pt x="930" y="991" on="0"/>
        <pt x="930" y="719" on="1"/>
      </contour>
    </TTGlyph>
    <TTGlyph name="reshdagesh" xMin="39" yMin="0" xMax="930" yMax="1227">
      <component glyphName="resh" x="0" y="0" flags="0x200"/>
      <component glyphName="dagesh" x="408" y="0" flags="0x0"/>
    </TTGlyph>
    <TTGlyph name="reshwide" xMin="39" yMin="0" xMax="930" yMax="1227">
      <component glyphName="resh" x="0" y="0" flags="0x200"/>
    </TTGlyph>
    <TTGlyph name="samekh" xMin="51" yMin="-20" xMax="1231" yMax="1227">
      <contour>
        <pt x="133" y="643" on="1"/>
        <pt x="133" y="764" on="0"/>
        <pt x="192" y="1006" on="0"/>
        <pt x="231" y="1057" on="1"/>
        <pt x="51" y="1057" on="1"/>
        <pt x="51" y="1227" on="1"/>
        <pt x="715" y="1227" on="1"/>
        <pt x="991" y="1227" on="0"/>
        <pt x="1231" y="992" on="0"/>
        <pt x="1231" y="719" on="1"/>
        <pt x="1231" y="631" on="1"/>
        <pt x="1231" y="311" on="0"/>
        <pt x="944" y="-20" on="0"/>
        <pt x="668" y="-20" on="1"/>
        <pt x="394" y="-20" on="0"/>
        <pt x="133" y="289" on="0"/>
        <pt x="133" y="608" on="1"/>
      </contour>
      <contour>
        <pt x="395" y="1057" on="1"/>
        <pt x="328" y="938" on="0"/>
        <pt x="328" y="651" on="1"/>
        <pt x="328" y="598" on="1"/>
        <pt x="328" y="378" on="0"/>
        <pt x="505" y="150" on="0"/>
        <pt x="672" y="150" on="1"/>
        <pt x="863" y="150" on="0"/>
        <pt x="1034" y="376" on="0"/>
        <pt x="1034" y="633" on="1"/>
        <pt x="1034" y="721" on="1"/>
        <pt x="1034" y="907" on="0"/>
        <pt x="892" y="1057" on="0"/>
        <pt x="713" y="1057" on="1"/>
      </contour>
    </TTGlyph>
    <TTGlyph name="samekhdagesh" xMin="51" yMin="-20" xMax="1231" yMax="1227">
      <component glyphName="samekh" x="0" y="0" flags="0x200"/>
      <component glyphName="dagesh" x="678" y="0" flags="0x0"/>
    </TTGlyph>
    <TTGlyph name="segol" xMin="-195" yMin="-385" xMax="195" yMax="-18">
      <contour>
        <pt x="-195" y="-98" on="1"/>
        <pt x="-195" y="-64" on="0"/>
        <pt x="-149" y="-18" on="0"/>
        <pt x="-115" y="-18" on="1"/>
        <pt x="-81" y="-18" on="0"/>
        <pt x="-35" y="-66" on="0"/>
        <pt x="-35" y="-98" on="1"/>
        <pt x="-35" y="-130" on="0"/>
        <pt x="-83" y="-178" on="0"/>
        <pt x="-115" y="-178" on="1"/>
        <pt x="-147" y="-178" on="0"/>
        <pt x="-195" y="-131" on="0"/>
      </contour>
      <contour>
        <pt x="37" y="-98" on="1"/>
        <pt x="37" y="-64" on="0"/>
        <pt x="83" y="-18" on="0"/>
        <pt x="115" y="-18" on="1"/>
        <pt x="149" y="-18" on="0"/>
        <pt x="195" y="-64" on="0"/>
        <pt x="195" y="-98" on="1"/>
        <pt x="195" y="-132" on="0"/>
        <pt x="147" y="-178" on="0"/>
        <pt x="115" y="-178" on="1"/>
        <pt x="83" y="-178" on="0"/>
        <pt x="37" y="-130" on="0"/>
      </contour>
      <contour>
        <pt x="-80" y="-305" on="1"/>
        <pt x="-80" y="-273" on="0"/>
        <pt x="-32" y="-227" on="0"/>
        <pt x="0" y="-227" on="1"/>
        <pt x="32" y="-227" on="0"/>
        <pt x="80" y="-273" on="0"/>
        <pt x="80" y="-305" on="1"/>
        <pt x="80" y="-337" on="0"/>
        <pt x="33" y="-385" on="0"/>
        <pt x="0" y="-385" on="1"/>
        <pt x="-34" y="-385" on="0"/>
        <pt x="-80" y="-337" on="0"/>
      </contour>
    </TTGlyph>
    <TTGlyph name="sheqel" xMin="180" yMin="0" xMax="1559" yMax="1227">
      <contour>
        <pt x="705" y="1227" on="1"/>
        <pt x="878" y="1227" on="0"/>
        <pt x="1070" y="1121" on="0"/>
        <pt x="1159" y="888" on="0"/>
        <pt x="1159" y="686" on="1"/>
        <pt x="1159" y="422" on="1"/>
        <pt x="975" y="422" on="1"/>
        <pt x="975" y="674" on="1"/>
        <pt x="975" y="827" on="0"/>
        <pt x="926" y="986" on="0"/>
        <pt x="812" y="1057" on="0"/>
        <pt x="700" y="1057" on="1"/>
        <pt x="365" y="1057" on="1"/>
        <pt x="365" y="0" on="1"/>
        <pt x="180" y="0" on="1"/>
        <pt x="180" y="1227" on="1"/>
      </contour>
      <contour>
        <pt x="578" y="0" on="1"/>
        <pt x="578" y="729" on="1"/>
        <pt x="762" y="729" on="1"/>
        <pt x="762" y="170" on="1"/>
        <pt x="1102" y="170" on="1"/>
        <pt x="1213" y="170" on="0"/>
        <pt x="1326" y="241" on="0"/>
        <pt x="1374" y="404" on="0"/>
        <pt x="1374" y="553" on="1"/>
        <pt x="1374" y="1227" on="1"/>
        <pt x="1559" y="1227" on="1"/>
        <pt x="1559" y="541" on="1"/>
        <pt x="1559" y="338" on="0"/>
        <pt x="1468" y="104" on="0"/>
        <pt x="1275" y="0" on="0"/>
        <pt x="1104" y="0" on="1"/>
      </contour>
    </TTGlyph>
    <TTGlyph name="sheva" xMin="-80" yMin="-385" xMax="80" yMax="-18">
      <contour>
        <pt x="-80" y="-98" on="1"/>
        <pt x="-80" y="-65" on="0"/>
        <pt x="-33" y="-18" on="0"/>
        <pt x="0" y="-18" on="1"/>
        <pt x="34" y="-18" on="0"/>
        <pt x="80" y="-66" on="0"/>
        <pt x="80" y="-98" on="1"/>
        <pt x="80" y="-130" on="0"/>
        <pt x="32" y="-176" on="0"/>
        <pt x="0" y="-176" on="1"/>
        <pt x="-32" y="-176" on="0"/>
        <pt x="-80" y="-130" on="0"/>
      </contour>
      <contour>
        <pt x="-80" y="-305" on="1"/>
        <pt x="-80" y="-271" on="0"/>
        <pt x="-32" y="-225" on="0"/>
        <pt x="0" y="-225" on="1"/>
        <pt x="32" y="-225" on="0"/>
        <pt x="80" y="-273" on="0"/>
        <pt x="80" y="-305" on="1"/>
        <pt x="80" y="-337" on="0"/>
        <pt x="33" y="-385" on="0"/>
        <pt x="0" y="-385" on="1"/>
        <pt x="-34" y="-385" on="0"/>
        <pt x="-80" y="-339" on="0"/>
      </contour>
    </TTGlyph>
    <TTGlyph name="shin" xMin="51" yMin="-10" xMax="1407" yMax="1227">
      <contour>
        <pt x="668" y="1227" on="1"/>
        <pt x="858" y="1227" on="1"/>
        <pt x="827" y="899" on="1"/>
        <pt x="812" y="732" on="0"/>
        <pt x="761" y="583" on="0"/>
        <pt x="661" y="502" on="0"/>
        <pt x="545" y="471" on="1"/>
        <pt x="395" y="436" on="1"/>
        <pt x="444" y="178" on="1"/>
        <pt x="468" y="178" on="1"/>
        <pt x="669" y="178" on="0"/>
        <pt x="911" y="225" on="0"/>
        <pt x="1051" y="325" on="0"/>
        <pt x="1128" y="508" on="0"/>
        <pt x="1151" y="702" on="1"/>
        <pt x="1214" y="1227" on="1"/>
        <pt x="1407" y="1227" on="1"/>
        <pt x="1343" y="709" on="1"/>
        <pt x="1312" y="447" on="0"/>
        <pt x="1198" y="194" on="0"/>
        <pt x="990" y="55" on="0"/>
        <pt x="625" y="-8" on="0"/>
        <pt x="285" y="-10" on="1"/>
        <pt x="51" y="1227" on="1"/>
        <pt x="242" y="1227" on="1"/>
        <pt x="365" y="596" on="1"/>
        <pt x="438" y="610" on="1"/>
        <pt x="546" y="634" on="0"/>
        <pt x="632" y="755" on="0"/>
        <pt x="643" y="901" on="1"/>
      </contour>
    </TTGlyph>
    <TTGlyph name="shindagesh" xMin="51" yMin="-10" xMax="1407" yMax="1227">
      <component glyphName="shin" x="0" y="0" flags="0x200"/>
      <component glyphName="dagesh" x="952" y="-79" flags="0x0"/>
    </TTGlyph>
    <TTGlyph name="shindageshshindot" xMin="51" yMin="-10" xMax="1440" yMax="1606">
      <component glyphName="shin" x="0" y="0" flags="0x200"/>
      <component glyphName="holam" x="1360" y="0" flags="0x0"/>
      <component glyphName="dagesh" x="958" y="-79" flags="0x0"/>
    </TTGlyph>
    <TTGlyph name="shindageshsindot" xMin="51" yMin="-10" xMax="1407" yMax="1606">
      <component glyphName="shin" x="0" y="0" flags="0x200"/>
      <component glyphName="dagesh" x="958" y="-79" flags="0x0"/>
      <component glyphName="holam" x="145" y="0" flags="0x0"/>
    </TTGlyph>
    <TTGlyph name="shindot" xMin="-80" yMin="1446" xMax="80" yMax="1606">
      <component glyphName="holam" x="0" y="0" flags="0x0"/>
    </TTGlyph>
    <TTGlyph name="shinshindot" xMin="51" yMin="-10" xMax="1407" yMax="1606">
      <component glyphName="shin" x="0" y="0" flags="0x200"/>
      <component glyphName="holam" x="1325" y="0" flags="0x0"/>
    </TTGlyph>
    <TTGlyph name="shinsindot" xMin="51" yMin="-10" xMax="1407" yMax="1606">
      <component glyphName="shin" x="0" y="0" flags="0x200"/>
      <component glyphName="holam" x="152" y="0" flags="0x0"/>
    </TTGlyph>
    <TTGlyph name="sindot" xMin="-80" yMin="1446" xMax="80" yMax="1606">
      <component glyphName="holam" x="0" y="0" flags="0x0"/>
    </TTGlyph>
    <TTGlyph name="sofpasuq" xMin="186" yMin="0" xMax="383" yMax="1081">
      <contour>
        <pt x="186" y="874" on="1"/>
        <pt x="186" y="1081" on="1"/>
        <pt x="383" y="1081" on="1"/>
        <pt x="383" y="874" on="1"/>
      </contour>
      <contour>
        <pt x="186" y="0" on="1"/>
        <pt x="186" y="207" on="1"/>
        <pt x="383" y="207" on="1"/>
        <pt x="383" y="0" on="1"/>
      </contour>
    </TTGlyph>
    <TTGlyph name="tav" xMin="61" yMin="0" xMax="1251" yMax="1227">
      <contour>
        <pt x="262" y="1057" on="1"/>
        <pt x="72" y="1057" on="1"/>
        <pt x="72" y="1227" on="1"/>
        <pt x="735" y="1227" on="1"/>
        <pt x="1011" y="1227" on="0"/>
        <pt x="1251" y="992" on="0"/>
        <pt x="1251" y="719" on="1"/>
        <pt x="1251" y="0" on="1"/>
        <pt x="1067" y="0" on="1"/>
        <pt x="1067" y="721" on="1"/>
        <pt x="1067" y="905" on="0"/>
        <pt x="918" y="1057" on="0"/>
        <pt x="733" y="1057" on="1"/>
        <pt x="446" y="1057" on="1"/>
        <pt x="446" y="475" on="1"/>
        <pt x="446" y="291" on="0"/>
        <pt x="379" y="89" on="0"/>
        <pt x="231" y="0" on="0"/>
        <pt x="72" y="0" on="1"/>
        <pt x="61" y="0" on="1"/>
        <pt x="61" y="170" on="1"/>
        <pt x="78" y="170" on="1"/>
        <pt x="148" y="170" on="0"/>
        <pt x="228" y="221" on="0"/>
        <pt x="262" y="329" on="0"/>
        <pt x="262" y="438" on="1"/>
      </contour>
    </TTGlyph>
    <TTGlyph name="tavdagesh" xMin="61" yMin="0" xMax="1251" yMax="1227">
      <component glyphName="tav" x="0" y="0" flags="0x200"/>
      <component glyphName="dagesh" x="737" y="0" flags="0x0"/>
    </TTGlyph>
    <TTGlyph name="tavwide" xMin="61" yMin="0" xMax="1251" yMax="1227">
      <component glyphName="tav" x="0" y="0" flags="0x200"/>
    </TTGlyph>
    <TTGlyph name="tet" xMin="164" yMin="-20" xMax="1227" yMax="1247">
      <contour>
        <pt x="659" y="-20" on="1"/>
        <pt x="404" y="-20" on="0"/>
        <pt x="164" y="237" on="0"/>
        <pt x="164" y="504" on="1"/>
        <pt x="164" y="1227" on="1"/>
        <pt x="348" y="1227" on="1"/>
        <pt x="348" y="510" on="1"/>
        <pt x="348" y="324" on="0"/>
        <pt x="495" y="152" on="0"/>
        <pt x="662" y="152" on="1"/>
        <pt x="858" y="152" on="0"/>
        <pt x="1034" y="394" on="0"/>
        <pt x="1034" y="674" on="1"/>
        <pt x="1034" y="882" on="0"/>
        <pt x="946" y="1075" on="0"/>
        <pt x="840" y="1075" on="1"/>
        <pt x="738" y="1075" on="0"/>
        <pt x="643" y="1010" on="1"/>
        <pt x="643" y="1186" on="1"/>
        <pt x="721" y="1247" on="0"/>
        <pt x="858" y="1247" on="1"/>
        <pt x="995" y="1247" on="0"/>
        <pt x="1152" y="1129" on="0"/>
        <pt x="1227" y="876" on="0"/>
        <pt x="1227" y="674" on="1"/>
        <pt x="1227" y="315" on="0"/>
        <pt x="953" y="-20" on="0"/>
      </contour>
    </TTGlyph>
    <TTGlyph name="tetdagesh" xMin="164" yMin="-20" xMax="1227" yMax="1247">
      <component glyphName="tet" x="0" y="0" flags="0x200"/>
      <component glyphName="dagesh" x="694" y="0" flags="0x0"/>
    </TTGlyph>
    <TTGlyph name="tsadi" xMin="10" yMin="0" xMax="1028" yMax="1227">
      <contour>
        <pt x="1028" y="0" on="1"/>
        <pt x="84" y="0" on="1"/>
        <pt x="84" y="170" on="1"/>
        <pt x="799" y="170" on="1"/>
        <pt x="10" y="1227" on="1"/>
        <pt x="240" y="1227" on="1"/>
        <pt x="621" y="709" on="1"/>
        <pt x="698" y="742" on="0"/>
        <pt x="768" y="871" on="0"/>
        <pt x="780" y="1004" on="1"/>
        <pt x="803" y="1227" on="1"/>
        <pt x="993" y="1227" on="1"/>
        <pt x="973" y="1008" on="1"/>
        <pt x="959" y="868" on="0"/>
        <pt x="904" y="723" on="0"/>
        <pt x="802" y="627" on="0"/>
        <pt x="709" y="590" on="1"/>
        <pt x="1028" y="158" on="1"/>
      </contour>
    </TTGlyph>
    <TTGlyph name="tsadidagesh" xMin="10" yMin="0" xMax="1028" yMax="1227">
      <component glyphName="tsadi" x="0" y="0" flags="0x200"/>
      <component glyphName="dagesh" x="328" y="-300" flags="0x0"/>
    </TTGlyph>
    <TTGlyph name="tsere" xMin="-195" yMin="-348" xMax="195" yMax="-188">
      <contour>
        <pt x="-195" y="-268" on="1"/>
        <pt x="-195" y="-234" on="0"/>
        <pt x="-147" y="-188" on="0"/>
        <pt x="-115" y="-188" on="1"/>
        <pt x="-83" y="-188" on="0"/>
        <pt x="-35" y="-236" on="0"/>
        <pt x="-35" y="-268" on="1"/>
        <pt x="-35" y="-300" on="0"/>
        <pt x="-82" y="-348" on="0"/>
        <pt x="-115" y="-348" on="1"/>
        <pt x="-149" y="-348" on="0"/>
        <pt x="-195" y="-302" on="0"/>
      </contour>
      <contour>
        <pt x="37" y="-268" on="1"/>
        <pt x="37" y="-236" on="0"/>
        <pt x="83" y="-188" on="0"/>
        <pt x="115" y="-188" on="1"/>
        <pt x="148" y="-188" on="0"/>
        <pt x="195" y="-235" on="0"/>
        <pt x="195" y="-268" on="1"/>
        <pt x="195" y="-302" on="0"/>
        <pt x="149" y="-348" on="0"/>
        <pt x="115" y="-348" on="1"/>
        <pt x="83" y="-348" on="0"/>
        <pt x="37" y="-302" on="0"/>
      </contour>
    </TTGlyph>
    <TTGlyph name="uni0591" xMin="-188" yMin="-385" xMax="190" yMax="-53">
      <contour>
        <pt x="190" y="-385" on="1"/>
        <pt x="88" y="-385" on="1"/>
        <pt x="88" y="-338" on="1"/>
        <pt x="88" y="-284" on="0"/>
        <pt x="50" y="-238" on="0"/>
        <pt x="2" y="-238" on="1"/>
        <pt x="-49" y="-238" on="0"/>
        <pt x="-88" y="-284" on="0"/>
        <pt x="-88" y="-338" on="1"/>
        <pt x="-88" y="-385" on="1"/>
        <pt x="-188" y="-385" on="1"/>
        <pt x="-188" y="-336" on="1"/>
        <pt x="-188" y="-248" on="0"/>
        <pt x="-121" y="-158" on="0"/>
        <pt x="-51" y="-147" on="1"/>
        <pt x="-51" y="-53" on="1"/>
        <pt x="51" y="-53" on="1"/>
        <pt x="51" y="-147" on="1"/>
        <pt x="123" y="-158" on="0"/>
        <pt x="190" y="-249" on="0"/>
        <pt x="190" y="-336" on="1"/>
      </contour>
    </TTGlyph>
    <TTGlyph name="uni0592" xMin="43" yMin="1358" xMax="430" yMax="1724">
      <contour>
        <pt x="43" y="1647" on="1"/>
        <pt x="43" y="1679" on="0"/>
        <pt x="89" y="1724" on="0"/>
        <pt x="121" y="1724" on="1"/>
        <pt x="155" y="1724" on="0"/>
        <pt x="201" y="1679" on="0"/>
        <pt x="201" y="1647" on="1"/>
        <pt x="201" y="1613" on="0"/>
        <pt x="155" y="1567" on="0"/>
        <pt x="121" y="1567" on="1"/>
        <pt x="89" y="1567" on="0"/>
        <pt x="43" y="1613" on="0"/>
      </contour>
      <contour>
        <pt x="272" y="1647" on="1"/>
        <pt x="272" y="1679" on="0"/>
        <pt x="318" y="1724" on="0"/>
        <pt x="350" y="1724" on="1"/>
        <pt x="384" y="1724" on="0"/>
        <pt x="430" y="1679" on="0"/>
        <pt x="430" y="1647" on="1"/>
        <pt x="430" y="1613" on="0"/>
        <pt x="384" y="1567" on="0"/>
        <pt x="350" y="1567" on="1"/>
        <pt x="318" y="1567" on="0"/>
        <pt x="272" y="1613" on="0"/>
      </contour>
      <contour>
        <pt x="158" y="1438" on="1"/>
        <pt x="158" y="1472" on="0"/>
        <pt x="204" y="1518" on="0"/>
        <pt x="236" y="1518" on="1"/>
        <pt x="270" y="1518" on="0"/>
        <pt x="315" y="1472" on="0"/>
        <pt x="315" y="1438" on="1"/>
        <pt x="315" y="1406" on="0"/>
        <pt x="270" y="1358" on="0"/>
        <pt x="236" y="1358" on="1"/>
        <pt x="204" y="1358" on="0"/>
        <pt x="158" y="1406" on="0"/>
      </contour>
    </TTGlyph>
    <TTGlyph name="uni0593" xMin="-147" yMin="1358" xMax="147" yMax="1788">
      <contour>
        <pt x="147" y="1788" on="1"/>
        <pt x="-8" y="1702" on="1"/>
        <pt x="147" y="1616" on="1"/>
        <pt x="-8" y="1530" on="1"/>
        <pt x="147" y="1444" on="1"/>
        <pt x="-29" y="1358" on="1"/>
        <pt x="-147" y="1358" on="1"/>
        <pt x="8" y="1444" on="1"/>
        <pt x="-147" y="1530" on="1"/>
        <pt x="8" y="1616" on="1"/>
        <pt x="-147" y="1702" on="1"/>
        <pt x="8" y="1788" on="1"/>
      </contour>
    </TTGlyph>
    <TTGlyph name="uni0594" xMin="94" yMin="1358" xMax="256" yMax="1724">
      <contour>
        <pt x="96" y="1645" on="1"/>
        <pt x="96" y="1679" on="0"/>
        <pt x="142" y="1724" on="0"/>
        <pt x="174" y="1724" on="1"/>
        <pt x="208" y="1724" on="0"/>
        <pt x="256" y="1679" on="0"/>
        <pt x="256" y="1645" on="1"/>
        <pt x="256" y="1613" on="0"/>
        <pt x="209" y="1567" on="0"/>
        <pt x="174" y="1567" on="1"/>
        <pt x="142" y="1567" on="0"/>
        <pt x="96" y="1613" on="0"/>
      </contour>
      <contour>
        <pt x="94" y="1438" on="1"/>
        <pt x="94" y="1472" on="0"/>
        <pt x="142" y="1518" on="0"/>
        <pt x="174" y="1518" on="1"/>
        <pt x="206" y="1518" on="0"/>
        <pt x="254" y="1470" on="0"/>
        <pt x="254" y="1438" on="1"/>
        <pt x="254" y="1406" on="0"/>
        <pt x="207" y="1358" on="0"/>
        <pt x="174" y="1358" on="1"/>
        <pt x="140" y="1358" on="0"/>
        <pt x="94" y="1404" on="0"/>
      </contour>
    </TTGlyph>
    <TTGlyph name="uni0595" xMin="96" yMin="1358" xMax="455" yMax="1724">
      <contour>
        <pt x="295" y="1645" on="1"/>
        <pt x="295" y="1679" on="0"/>
        <pt x="341" y="1724" on="0"/>
        <pt x="375" y="1724" on="1"/>
        <pt x="407" y="1724" on="0"/>
        <pt x="455" y="1679" on="0"/>
        <pt x="455" y="1645" on="1"/>
        <pt x="455" y="1613" on="0"/>
        <pt x="407" y="1567" on="0"/>
        <pt x="375" y="1567" on="1"/>
        <pt x="341" y="1567" on="0"/>
        <pt x="295" y="1613" on="0"/>
      </contour>
      <contour>
        <pt x="295" y="1438" on="1"/>
        <pt x="295" y="1470" on="0"/>
        <pt x="341" y="1518" on="0"/>
        <pt x="373" y="1518" on="1"/>
        <pt x="406" y="1518" on="0"/>
        <pt x="453" y="1471" on="0"/>
        <pt x="453" y="1438" on="1"/>
        <pt x="453" y="1404" on="0"/>
        <pt x="407" y="1358" on="0"/>
        <pt x="373" y="1358" on="1"/>
        <pt x="341" y="1358" on="0"/>
        <pt x="295" y="1404" on="0"/>
      </contour>
      <contour>
        <pt x="96" y="1358" on="1"/>
        <pt x="96" y="1724" on="1"/>
        <pt x="207" y="1724" on="1"/>
        <pt x="207" y="1358" on="1"/>
      </contour>
    </TTGlyph>
    <TTGlyph name="uni0596" xMin="-178" yMin="-385" xMax="150" yMax="-82">
      <contour>
        <pt x="-68" y="-82" on="1"/>
        <pt x="-68" y="-174" on="0"/>
        <pt x="48" y="-279" on="0"/>
        <pt x="150" y="-279" on="1"/>
        <pt x="150" y="-385" on="1"/>
        <pt x="-6" y="-385" on="0"/>
        <pt x="-178" y="-225" on="0"/>
        <pt x="-178" y="-82" on="1"/>
      </contour>
    </TTGlyph>
    <TTGlyph name="uni0597" xMin="-152" yMin="1368" xMax="152" yMax="1704">
      <contour>
        <pt x="152" y="1536" on="1"/>
        <pt x="0" y="1368" on="1"/>
        <pt x="-152" y="1536" on="1"/>
        <pt x="0" y="1704" on="1"/>
      </contour>
    </TTGlyph>
    <TTGlyph name="uni0598" xMin="-299" yMin="1360" xMax="299" yMax="1667">
      <contour>
        <pt x="-156" y="1593" on="1"/>
        <pt x="-184" y="1593" on="0"/>
        <pt x="-221" y="1555" on="0"/>
        <pt x="-221" y="1518" on="1"/>
        <pt x="-221" y="1454" on="0"/>
        <pt x="-164" y="1432" on="1"/>
        <pt x="-190" y="1360" on="1"/>
        <pt x="-299" y="1398" on="0"/>
        <pt x="-299" y="1518" on="1"/>
        <pt x="-299" y="1583" on="0"/>
        <pt x="-217" y="1665" on="0"/>
        <pt x="-152" y="1665" on="1"/>
        <pt x="-105" y="1665" on="0"/>
        <pt x="-24" y="1612" on="0"/>
        <pt x="29" y="1538" on="1"/>
        <pt x="69" y="1481" on="0"/>
        <pt x="124" y="1434" on="0"/>
        <pt x="156" y="1434" on="1"/>
        <pt x="184" y="1434" on="0"/>
        <pt x="221" y="1472" on="0"/>
        <pt x="221" y="1509" on="1"/>
        <pt x="221" y="1573" on="0"/>
        <pt x="164" y="1595" on="1"/>
        <pt x="190" y="1667" on="1"/>
        <pt x="299" y="1626" on="0"/>
        <pt x="299" y="1509" on="1"/>
        <pt x="299" y="1444" on="0"/>
        <pt x="218" y="1362" on="0"/>
        <pt x="156" y="1362" on="1"/>
        <pt x="106" y="1362" on="0"/>
        <pt x="23" y="1416" on="0"/>
        <pt x="-29" y="1489" on="1"/>
        <pt x="-73" y="1551" on="0"/>
        <pt x="-122" y="1593" on="0"/>
      </contour>
    </TTGlyph>
    <TTGlyph name="uni0599" xMin="-328" yMin="1358" xMax="0" yMax="1663">
      <contour>
        <pt x="-111" y="1358" on="1"/>
        <pt x="-111" y="1450" on="0"/>
        <pt x="-224" y="1554" on="0"/>
        <pt x="-328" y="1554" on="1"/>
        <pt x="-328" y="1663" on="1"/>
        <pt x="-174" y="1663" on="0"/>
        <pt x="0" y="1504" on="0"/>
        <pt x="0" y="1358" on="1"/>
      </contour>
    </TTGlyph>
    <TTGlyph name="uni059A" xMin="0" yMin="-385" xMax="322" yMax="-25">
      <contour>
        <pt x="322" y="-385" on="1"/>
        <pt x="178" y="-385" on="1"/>
        <pt x="0" y="-205" on="1"/>
        <pt x="178" y="-25" on="1"/>
        <pt x="322" y="-25" on="1"/>
        <pt x="143" y="-205" on="1"/>
      </contour>
    </TTGlyph>
    <TTGlyph name="uni059B" xMin="-215" yMin="-385" xMax="150" yMax="-14">
      <contour>
        <pt x="150" y="-82" on="1"/>
        <pt x="150" y="-223" on="0"/>
        <pt x="-20" y="-385" on="0"/>
        <pt x="-178" y="-385" on="1"/>
        <pt x="-178" y="-279" on="1"/>
        <pt x="-77" y="-279" on="0"/>
        <pt x="41" y="-174" on="0"/>
        <pt x="41" y="-82" on="1"/>
      </contour>
      <contour>
        <pt x="-215" y="-94" on="1"/>
        <pt x="-215" y="-62" on="0"/>
        <pt x="-169" y="-14" on="0"/>
        <pt x="-137" y="-14" on="1"/>
        <pt x="-104" y="-14" on="0"/>
        <pt x="-57" y="-61" on="0"/>
        <pt x="-57" y="-94" on="1"/>
        <pt x="-57" y="-128" on="0"/>
        <pt x="-103" y="-174" on="0"/>
        <pt x="-137" y="-174" on="1"/>
        <pt x="-169" y="-174" on="0"/>
        <pt x="-215" y="-128" on="0"/>
      </contour>
    </TTGlyph>
    <TTGlyph name="uni059C" xMin="0" yMin="1358" xMax="328" yMax="1663">
      <contour>
        <pt x="0" y="1358" on="1"/>
        <pt x="0" y="1503" on="0"/>
        <pt x="174" y="1663" on="0"/>
        <pt x="328" y="1663" on="1"/>
        <pt x="328" y="1554" on="1"/>
        <pt x="226" y="1554" on="0"/>
        <pt x="111" y="1453" on="0"/>
        <pt x="111" y="1358" on="1"/>
      </contour>
    </TTGlyph>
    <TTGlyph name="uni059D" xMin="0" yMin="1358" xMax="328" yMax="1663">
      <component glyphName="uni059C" x="0" y="0" flags="0x0"/>
    </TTGlyph>
    <TTGlyph name="uni059E" xMin="-328" yMin="1358" xMax="328" yMax="1663">
      <contour>
        <pt x="0" y="1358" on="1"/>
        <pt x="0" y="1503" on="0"/>
        <pt x="174" y="1663" on="0"/>
        <pt x="328" y="1663" on="1"/>
        <pt x="328" y="1554" on="1"/>
        <pt x="226" y="1554" on="0"/>
        <pt x="111" y="1453" on="0"/>
        <pt x="111" y="1358" on="1"/>
      </contour>
      <contour>
        <pt x="-328" y="1358" on="1"/>
        <pt x="-328" y="1501" on="0"/>
        <pt x="-156" y="1663" on="0"/>
        <pt x="0" y="1663" on="1"/>
        <pt x="0" y="1554" on="1"/>
        <pt x="-102" y="1554" on="0"/>
        <pt x="-217" y="1453" on="0"/>
        <pt x="-217" y="1358" on="1"/>
      </contour>
    </TTGlyph>
    <TTGlyph name="uni059F" xMin="-522" yMin="1339" xMax="522" yMax="1833">
      <contour>
        <pt x="90" y="1618" on="1"/>
        <pt x="90" y="1707" on="0"/>
        <pt x="216" y="1833" on="0"/>
        <pt x="305" y="1833" on="1"/>
        <pt x="396" y="1833" on="0"/>
        <pt x="522" y="1708" on="0"/>
        <pt x="522" y="1618" on="1"/>
        <pt x="522" y="1529" on="0"/>
        <pt x="398" y="1403" on="0"/>
        <pt x="305" y="1403" on="1"/>
        <pt x="246" y="1403" on="0"/>
        <pt x="201" y="1427" on="1"/>
        <pt x="113" y="1339" on="1"/>
        <pt x="31" y="1423" on="1"/>
        <pt x="119" y="1511" on="1"/>
        <pt x="90" y="1558" on="0"/>
      </contour>
      <contour>
        <pt x="211" y="1618" on="1"/>
        <pt x="211" y="1578" on="0"/>
        <pt x="266" y="1522" on="0"/>
        <pt x="305" y="1522" on="1"/>
        <pt x="345" y="1522" on="0"/>
        <pt x="403" y="1579" on="0"/>
        <pt x="403" y="1618" on="1"/>
        <pt x="403" y="1657" on="0"/>
        <pt x="343" y="1714" on="0"/>
        <pt x="305" y="1714" on="1"/>
        <pt x="269" y="1714" on="0"/>
        <pt x="211" y="1658" on="0"/>
      </contour>
      <contour>
        <pt x="-90" y="1618" on="1"/>
        <pt x="-90" y="1558" on="0"/>
        <pt x="-119" y="1511" on="1"/>
        <pt x="-31" y="1423" on="1"/>
        <pt x="-113" y="1339" on="1"/>
        <pt x="-201" y="1427" on="1"/>
        <pt x="-246" y="1403" on="0"/>
        <pt x="-305" y="1403" on="1"/>
        <pt x="-397" y="1403" on="0"/>
        <pt x="-522" y="1528" on="0"/>
        <pt x="-522" y="1618" on="1"/>
        <pt x="-522" y="1707" on="0"/>
        <pt x="-396" y="1833" on="0"/>
        <pt x="-305" y="1833" on="1"/>
        <pt x="-216" y="1833" on="0"/>
        <pt x="-90" y="1707" on="0"/>
      </contour>
      <contour>
        <pt x="-211" y="1618" on="1"/>
        <pt x="-211" y="1658" on="0"/>
        <pt x="-269" y="1714" on="0"/>
        <pt x="-305" y="1714" on="1"/>
        <pt x="-343" y="1714" on="0"/>
        <pt x="-403" y="1656" on="0"/>
        <pt x="-403" y="1618" on="1"/>
        <pt x="-403" y="1579" on="0"/>
        <pt x="-345" y="1522" on="0"/>
        <pt x="-305" y="1522" on="1"/>
        <pt x="-267" y="1522" on="0"/>
        <pt x="-211" y="1578" on="0"/>
      </contour>
    </TTGlyph>
    <TTGlyph name="uni05A0" xMin="0" yMin="1339" xMax="492" yMax="1833">
      <contour>
        <pt x="61" y="1618" on="1"/>
        <pt x="61" y="1707" on="0"/>
        <pt x="187" y="1833" on="0"/>
        <pt x="276" y="1833" on="1"/>
        <pt x="364" y="1833" on="0"/>
        <pt x="492" y="1709" on="0"/>
        <pt x="492" y="1618" on="1"/>
        <pt x="492" y="1528" on="0"/>
        <pt x="366" y="1403" on="0"/>
        <pt x="276" y="1403" on="1"/>
        <pt x="219" y="1403" on="0"/>
        <pt x="170" y="1427" on="1"/>
        <pt x="84" y="1339" on="1"/>
        <pt x="0" y="1423" on="1"/>
        <pt x="88" y="1511" on="1"/>
        <pt x="61" y="1557" on="0"/>
      </contour>
      <contour>
        <pt x="180" y="1618" on="1"/>
        <pt x="180" y="1578" on="0"/>
        <pt x="236" y="1522" on="0"/>
        <pt x="276" y="1522" on="1"/>
        <pt x="317" y="1522" on="0"/>
        <pt x="373" y="1578" on="0"/>
        <pt x="373" y="1618" on="1"/>
        <pt x="373" y="1658" on="0"/>
        <pt x="315" y="1714" on="0"/>
        <pt x="276" y="1714" on="1"/>
        <pt x="238" y="1714" on="0"/>
        <pt x="180" y="1658" on="0"/>
      </contour>
    </TTGlyph>
    <TTGlyph name="uni05A1" xMin="-164" yMin="1358" xMax="168" yMax="1690">
      <contour>
        <pt x="168" y="1690" on="1"/>
        <pt x="168" y="1640" on="1"/>
        <pt x="168" y="1552" on="0"/>
        <pt x="81" y="1450" on="0"/>
        <pt x="-6" y="1450" on="1"/>
        <pt x="-40" y="1450" on="0"/>
        <pt x="-63" y="1460" on="1"/>
        <pt x="-63" y="1358" on="1"/>
        <pt x="-164" y="1358" on="1"/>
        <pt x="-164" y="1690" on="1"/>
        <pt x="-63" y="1690" on="1"/>
        <pt x="-63" y="1552" on="1"/>
        <pt x="-53" y="1540" on="0"/>
        <pt x="-20" y="1540" on="1"/>
        <pt x="28" y="1540" on="0"/>
        <pt x="66" y="1585" on="0"/>
        <pt x="66" y="1640" on="1"/>
        <pt x="66" y="1690" on="1"/>
      </contour>
    </TTGlyph>
    <TTGlyph name="uni05A2" xMin="-188" yMin="-385" xMax="190" yMax="-53">
      <contour>
        <pt x="190" y="-102" on="1"/>
        <pt x="190" y="-192" on="0"/>
        <pt x="121" y="-282" on="0"/>
        <pt x="51" y="-293" on="1"/>
        <pt x="51" y="-385" on="1"/>
        <pt x="-51" y="-385" on="1"/>
        <pt x="-51" y="-293" on="1"/>
        <pt x="-118" y="-283" on="0"/>
        <pt x="-188" y="-193" on="0"/>
        <pt x="-188" y="-102" on="1"/>
        <pt x="-188" y="-53" on="1"/>
        <pt x="-88" y="-53" on="1"/>
        <pt x="-88" y="-102" on="1"/>
        <pt x="-88" y="-155" on="0"/>
        <pt x="-49" y="-203" on="0"/>
        <pt x="2" y="-203" on="1"/>
        <pt x="50" y="-203" on="0"/>
        <pt x="88" y="-155" on="0"/>
        <pt x="88" y="-102" on="1"/>
        <pt x="88" y="-53" on="1"/>
        <pt x="190" y="-53" on="1"/>
      </contour>
    </TTGlyph>
    <TTGlyph name="uni05A3" xMin="-184" yMin="-348" xMax="143" yMax="-35">
      <contour>
        <pt x="143" y="-35" on="1"/>
        <pt x="143" y="-348" on="1"/>
        <pt x="-184" y="-348" on="1"/>
        <pt x="-184" y="-242" on="1"/>
        <pt x="35" y="-242" on="1"/>
        <pt x="35" y="-35" on="1"/>
      </contour>
    </TTGlyph>
    <TTGlyph name="uni05A4" xMin="-162" yMin="-385" xMax="162" yMax="-25">
      <contour>
        <pt x="162" y="-385" on="1"/>
        <pt x="18" y="-385" on="1"/>
        <pt x="-162" y="-205" on="1"/>
        <pt x="18" y="-25" on="1"/>
        <pt x="162" y="-25" on="1"/>
        <pt x="-18" y="-205" on="1"/>
      </contour>
    </TTGlyph>
    <TTGlyph name="uni05A5" xMin="-150" yMin="-385" xMax="178" yMax="-82">
      <contour>
        <pt x="178" y="-82" on="1"/>
        <pt x="178" y="-225" on="0"/>
        <pt x="7" y="-385" on="0"/>
        <pt x="-150" y="-385" on="1"/>
        <pt x="-150" y="-279" on="1"/>
        <pt x="-48" y="-279" on="0"/>
        <pt x="68" y="-173" on="0"/>
        <pt x="68" y="-82" on="1"/>
      </contour>
    </TTGlyph>
    <TTGlyph name="uni05A6" xMin="-328" yMin="-385" xMax="328" yMax="-82">
      <contour>
        <pt x="0" y="-82" on="1"/>
        <pt x="0" y="-225" on="0"/>
        <pt x="-171" y="-385" on="0"/>
        <pt x="-328" y="-385" on="1"/>
        <pt x="-328" y="-279" on="1"/>
        <pt x="-225" y="-279" on="0"/>
        <pt x="-111" y="-172" on="0"/>
        <pt x="-111" y="-82" on="1"/>
      </contour>
      <contour>
        <pt x="328" y="-82" on="1"/>
        <pt x="328" y="-223" on="0"/>
        <pt x="158" y="-385" on="0"/>
        <pt x="0" y="-385" on="1"/>
        <pt x="0" y="-279" on="1"/>
        <pt x="103" y="-279" on="0"/>
        <pt x="217" y="-172" on="0"/>
        <pt x="217" y="-82" on="1"/>
      </contour>
    </TTGlyph>
    <TTGlyph name="uni05A7" xMin="-158" yMin="-385" xMax="156" yMax="-8">
      <contour>
        <pt x="156" y="-334" on="1"/>
        <pt x="-129" y="-385" on="1"/>
        <pt x="-129" y="-305" on="1"/>
        <pt x="12" y="-283" on="1"/>
        <pt x="-158" y="-59" on="1"/>
        <pt x="129" y="-8" on="1"/>
        <pt x="129" y="-84" on="1"/>
        <pt x="-14" y="-109" on="1"/>
      </contour>
    </TTGlyph>
    <TTGlyph name="uni05A8" xMin="-164" yMin="1358" xMax="164" yMax="1663">
      <component glyphName="uni0599" x="164" y="0" flags="0x0"/>
    </TTGlyph>
    <TTGlyph name="uni05A9" xMin="-492" yMin="1339" xMax="0" yMax="1833">
      <contour>
        <pt x="-61" y="1618" on="1"/>
        <pt x="-61" y="1557" on="0"/>
        <pt x="-88" y="1511" on="1"/>
        <pt x="0" y="1423" on="1"/>
        <pt x="-84" y="1339" on="1"/>
        <pt x="-170" y="1427" on="1"/>
        <pt x="-220" y="1403" on="0"/>
        <pt x="-276" y="1403" on="1"/>
        <pt x="-365" y="1403" on="0"/>
        <pt x="-492" y="1527" on="0"/>
        <pt x="-492" y="1618" on="1"/>
        <pt x="-492" y="1708" on="0"/>
        <pt x="-364" y="1833" on="0"/>
        <pt x="-276" y="1833" on="1"/>
        <pt x="-189" y="1833" on="0"/>
        <pt x="-61" y="1707" on="0"/>
      </contour>
      <contour>
        <pt x="-180" y="1618" on="1"/>
        <pt x="-180" y="1658" on="0"/>
        <pt x="-238" y="1714" on="0"/>
        <pt x="-276" y="1714" on="1"/>
        <pt x="-315" y="1714" on="0"/>
        <pt x="-373" y="1657" on="0"/>
        <pt x="-373" y="1618" on="1"/>
        <pt x="-373" y="1578" on="0"/>
        <pt x="-317" y="1522" on="0"/>
        <pt x="-276" y="1522" on="1"/>
        <pt x="-236" y="1522" on="0"/>
        <pt x="-180" y="1578" on="0"/>
      </contour>
    </TTGlyph>
    <TTGlyph name="uni05AA" xMin="-188" yMin="-385" xMax="190" yMax="-53">
      <component glyphName="uni05A2" x="0" y="0" flags="0x0"/>
    </TTGlyph>
    <TTGlyph name="uni05AB" xMin="-162" yMin="1358" xMax="162" yMax="1718">
      <contour>
        <pt x="162" y="1358" on="1"/>
        <pt x="18" y="1358" on="1"/>
        <pt x="-162" y="1538" on="1"/>
        <pt x="18" y="1718" on="1"/>
        <pt x="162" y="1718" on="1"/>
        <pt x="-18" y="1538" on="1"/>
      </contour>
    </TTGlyph>
    <TTGlyph name="uni05AC" xMin="-184" yMin="1358" xMax="143" yMax="1671">
      <contour>
        <pt x="143" y="1671" on="1"/>
        <pt x="143" y="1358" on="1"/>
        <pt x="-184" y="1358" on="1"/>
        <pt x="-184" y="1464" on="1"/>
        <pt x="35" y="1464" on="1"/>
        <pt x="35" y="1671" on="1"/>
      </contour>
    </TTGlyph>
    <TTGlyph name="uni05AD" xMin="0" yMin="-385" xMax="328" yMax="-82">
      <component glyphName="uni0596" x="178" y="0" flags="0x0"/>
    </TTGlyph>
    <TTGlyph name="uni05AE" xMin="-598" yMin="1360" xMax="0" yMax="1667">
      <component glyphName="uni0598" x="-299" y="0" flags="0x0"/>
    </TTGlyph>
    <TTGlyph name="uni05AF" xMin="-215" yMin="1403" xMax="215" yMax="1833">
      <contour>
        <pt x="-215" y="1618" on="1"/>
        <pt x="-215" y="1707" on="0"/>
        <pt x="-89" y="1833" on="0"/>
        <pt x="0" y="1833" on="1"/>
        <pt x="89" y="1833" on="0"/>
        <pt x="215" y="1707" on="0"/>
        <pt x="215" y="1618" on="1"/>
        <pt x="215" y="1529" on="0"/>
        <pt x="91" y="1403" on="0"/>
        <pt x="0" y="1403" on="1"/>
        <pt x="-91" y="1403" on="0"/>
        <pt x="-215" y="1529" on="0"/>
      </contour>
      <contour>
        <pt x="-96" y="1618" on="1"/>
        <pt x="-96" y="1578" on="0"/>
        <pt x="-40" y="1522" on="0"/>
        <pt x="0" y="1522" on="1"/>
        <pt x="40" y="1522" on="0"/>
        <pt x="96" y="1578" on="0"/>
        <pt x="96" y="1618" on="1"/>
        <pt x="96" y="1658" on="0"/>
        <pt x="38" y="1714" on="0"/>
        <pt x="0" y="1714" on="1"/>
        <pt x="-38" y="1714" on="0"/>
        <pt x="-96" y="1658" on="0"/>
      </contour>
    </TTGlyph>
    <TTGlyph name="uni05B105BD" xMin="-474" yMin="-385" xMax="361" yMax="-18">
      <contour>
        <pt x="-474" y="-96" on="1"/>
        <pt x="-474" y="-64" on="0"/>
        <pt x="-428" y="-18" on="0"/>
        <pt x="-396" y="-18" on="1"/>
        <pt x="-362" y="-18" on="0"/>
        <pt x="-316" y="-64" on="0"/>
        <pt x="-316" y="-96" on="1"/>
        <pt x="-316" y="-130" on="0"/>
        <pt x="-362" y="-176" on="0"/>
        <pt x="-396" y="-176" on="1"/>
        <pt x="-428" y="-176" on="0"/>
        <pt x="-474" y="-130" on="0"/>
      </contour>
      <contour>
        <pt x="-245" y="-96" on="1"/>
        <pt x="-245" y="-64" on="0"/>
        <pt x="-199" y="-18" on="0"/>
        <pt x="-167" y="-18" on="1"/>
        <pt x="-133" y="-18" on="0"/>
        <pt x="-87" y="-64" on="0"/>
        <pt x="-87" y="-96" on="1"/>
        <pt x="-87" y="-130" on="0"/>
        <pt x="-133" y="-176" on="0"/>
        <pt x="-167" y="-176" on="1"/>
        <pt x="-199" y="-176" on="0"/>
        <pt x="-245" y="-130" on="0"/>
      </contour>
      <contour>
        <pt x="-359" y="-305" on="1"/>
        <pt x="-359" y="-271" on="0"/>
        <pt x="-314" y="-225" on="0"/>
        <pt x="-282" y="-225" on="1"/>
        <pt x="-247" y="-225" on="0"/>
        <pt x="-202" y="-271" on="0"/>
        <pt x="-202" y="-305" on="1"/>
        <pt x="-202" y="-337" on="0"/>
        <pt x="-247" y="-385" on="0"/>
        <pt x="-282" y="-385" on="1"/>
        <pt x="-314" y="-385" on="0"/>
        <pt x="-359" y="-337" on="0"/>
      </contour>
      <contour>
        <pt x="203" y="-98" on="1"/>
        <pt x="203" y="-64" on="0"/>
        <pt x="249" y="-18" on="0"/>
        <pt x="281" y="-18" on="1"/>
        <pt x="315" y="-18" on="0"/>
        <pt x="361" y="-64" on="0"/>
        <pt x="361" y="-98" on="1"/>
        <pt x="361" y="-130" on="0"/>
        <pt x="315" y="-176" on="0"/>
        <pt x="281" y="-176" on="1"/>
        <pt x="249" y="-176" on="0"/>
        <pt x="203" y="-130" on="0"/>
      </contour>
      <contour>
        <pt x="203" y="-305" on="1"/>
        <pt x="203" y="-271" on="0"/>
        <pt x="249" y="-225" on="0"/>
        <pt x="281" y="-225" on="1"/>
        <pt x="313" y="-225" on="0"/>
        <pt x="361" y="-273" on="0"/>
        <pt x="361" y="-305" on="1"/>
        <pt x="361" y="-337" on="0"/>
        <pt x="314" y="-385" on="0"/>
        <pt x="281" y="-385" on="1"/>
        <pt x="247" y="-385" on="0"/>
        <pt x="203" y="-339" on="0"/>
      </contour>
      <contour>
        <pt x="3" y="-385" on="1"/>
        <pt x="3" y="-18" on="1"/>
        <pt x="113" y="-18" on="1"/>
        <pt x="113" y="-385" on="1"/>
      </contour>
    </TTGlyph>
    <TTGlyph name="uni05B205BD" xMin="-494" yMin="-385" xMax="282" yMax="-18">
      <contour>
        <pt x="-494" y="-162" on="1"/>
        <pt x="-494" y="-53" on="1"/>
        <pt x="-167" y="-53" on="1"/>
        <pt x="-167" y="-162" on="1"/>
      </contour>
      <contour>
        <pt x="123" y="-98" on="1"/>
        <pt x="123" y="-64" on="0"/>
        <pt x="168" y="-18" on="0"/>
        <pt x="203" y="-18" on="1"/>
        <pt x="235" y="-18" on="0"/>
        <pt x="282" y="-64" on="0"/>
        <pt x="282" y="-98" on="1"/>
        <pt x="282" y="-130" on="0"/>
        <pt x="235" y="-176" on="0"/>
        <pt x="203" y="-176" on="1"/>
        <pt x="168" y="-176" on="0"/>
        <pt x="123" y="-130" on="0"/>
      </contour>
      <contour>
        <pt x="123" y="-305" on="1"/>
        <pt x="123" y="-273" on="0"/>
        <pt x="168" y="-225" on="0"/>
        <pt x="200" y="-225" on="1"/>
        <pt x="235" y="-225" on="0"/>
        <pt x="280" y="-273" on="0"/>
        <pt x="280" y="-305" on="1"/>
        <pt x="280" y="-339" on="0"/>
        <pt x="235" y="-385" on="0"/>
        <pt x="200" y="-385" on="1"/>
        <pt x="168" y="-385" on="0"/>
        <pt x="123" y="-339" on="0"/>
      </contour>
      <contour>
        <pt x="-77" y="-385" on="1"/>
        <pt x="-77" y="-18" on="1"/>
        <pt x="33" y="-18" on="1"/>
        <pt x="33" y="-385" on="1"/>
      </contour>
    </TTGlyph>
    <TTGlyph name="uni05B305BD" xMin="-420" yMin="-385" xMax="356" yMax="-18">
      <contour>
        <pt x="-310" y="-276" on="1"/>
        <pt x="-310" y="-162" on="1"/>
        <pt x="-420" y="-162" on="1"/>
        <pt x="-420" y="-53" on="1"/>
        <pt x="-93" y="-53" on="1"/>
        <pt x="-93" y="-162" on="1"/>
        <pt x="-199" y="-162" on="1"/>
        <pt x="-199" y="-276" on="1"/>
      </contour>
      <contour>
        <pt x="197" y="-98" on="1"/>
        <pt x="197" y="-64" on="0"/>
        <pt x="242" y="-18" on="0"/>
        <pt x="277" y="-18" on="1"/>
        <pt x="309" y="-18" on="0"/>
        <pt x="356" y="-64" on="0"/>
        <pt x="356" y="-98" on="1"/>
        <pt x="356" y="-130" on="0"/>
        <pt x="309" y="-176" on="0"/>
        <pt x="277" y="-176" on="1"/>
        <pt x="242" y="-176" on="0"/>
        <pt x="197" y="-130" on="0"/>
      </contour>
      <contour>
        <pt x="197" y="-305" on="1"/>
        <pt x="197" y="-273" on="0"/>
        <pt x="242" y="-225" on="0"/>
        <pt x="274" y="-225" on="1"/>
        <pt x="309" y="-225" on="0"/>
        <pt x="356" y="-273" on="0"/>
        <pt x="356" y="-305" on="1"/>
        <pt x="356" y="-339" on="0"/>
        <pt x="309" y="-385" on="0"/>
        <pt x="274" y="-385" on="1"/>
        <pt x="242" y="-385" on="0"/>
        <pt x="197" y="-339" on="0"/>
      </contour>
      <contour>
        <pt x="-3" y="-385" on="1"/>
        <pt x="-3" y="-18" on="1"/>
        <pt x="107" y="-18" on="1"/>
        <pt x="107" y="-385" on="1"/>
      </contour>
    </TTGlyph>
    <TTGlyph name="uni05BA" xMin="-80" yMin="1446" xMax="80" yMax="1606">
      <component glyphName="holam" x="0" y="0" flags="0x0"/>
    </TTGlyph>
    <TTGlyph name="uni05C6" xMin="154" yMin="0" xMax="715" yMax="1227">
      <contour>
        <pt x="154" y="752" on="1"/>
        <pt x="154" y="936" on="0"/>
        <pt x="221" y="1138" on="0"/>
        <pt x="369" y="1227" on="0"/>
        <pt x="528" y="1227" on="1"/>
        <pt x="657" y="1227" on="1"/>
        <pt x="657" y="1057" on="1"/>
        <pt x="522" y="1057" on="1"/>
        <pt x="449" y="1057" on="0"/>
        <pt x="371" y="999" on="0"/>
        <pt x="338" y="868" on="0"/>
        <pt x="338" y="700" on="1"/>
        <pt x="338" y="170" on="1"/>
        <pt x="715" y="170" on="1"/>
        <pt x="715" y="0" on="1"/>
        <pt x="154" y="0" on="1"/>
      </contour>
    </TTGlyph>
    <TTGlyph name="uni25CC" xMin="98" yMin="86" xMax="1119" yMax="1106">
      <contour>
        <pt x="984" y="918" on="1"/>
        <pt x="984" y="864" on="0"/>
        <pt x="932" y="864" on="1"/>
        <pt x="876" y="864" on="0"/>
        <pt x="876" y="918" on="1"/>
        <pt x="876" y="972" on="0"/>
        <pt x="932" y="972" on="1"/>
        <pt x="984" y="972" on="0"/>
      </contour>
      <contour>
        <pt x="836" y="1016" on="1"/>
        <pt x="836" y="963" on="0"/>
        <pt x="784" y="963" on="1"/>
        <pt x="728" y="963" on="0"/>
        <pt x="728" y="1016" on="1"/>
        <pt x="728" y="1071" on="0"/>
        <pt x="784" y="1071" on="1"/>
        <pt x="836" y="1071" on="0"/>
      </contour>
      <contour>
        <pt x="1083" y="770" on="1"/>
        <pt x="1083" y="715" on="0"/>
        <pt x="1028" y="715" on="1"/>
        <pt x="975" y="715" on="0"/>
        <pt x="975" y="770" on="1"/>
        <pt x="975" y="823" on="0"/>
        <pt x="1030" y="823" on="1"/>
        <pt x="1083" y="823" on="0"/>
      </contour>
      <contour>
        <pt x="1119" y="596" on="1"/>
        <pt x="1119" y="542" on="0"/>
        <pt x="1067" y="542" on="1"/>
        <pt x="1011" y="542" on="0"/>
        <pt x="1011" y="596" on="1"/>
        <pt x="1011" y="650" on="0"/>
        <pt x="1067" y="650" on="1"/>
        <pt x="1119" y="650" on="0"/>
      </contour>
      <contour>
        <pt x="662" y="1053" on="1"/>
        <pt x="662" y="998" on="0"/>
        <pt x="608" y="998" on="1"/>
        <pt x="554" y="998" on="0"/>
        <pt x="554" y="1053" on="1"/>
        <pt x="554" y="1106" on="0"/>
        <pt x="608" y="1106" on="1"/>
        <pt x="662" y="1106" on="0"/>
      </contour>
      <contour>
        <pt x="489" y="1016" on="1"/>
        <pt x="489" y="963" on="0"/>
        <pt x="434" y="963" on="1"/>
        <pt x="381" y="963" on="0"/>
        <pt x="381" y="1016" on="1"/>
        <pt x="381" y="1071" on="0"/>
        <pt x="434" y="1071" on="1"/>
        <pt x="489" y="1071" on="0"/>
      </contour>
      <contour>
        <pt x="1083" y="422" on="1"/>
        <pt x="1083" y="369" on="0"/>
        <pt x="1028" y="369" on="1"/>
        <pt x="975" y="369" on="0"/>
        <pt x="975" y="422" on="1"/>
        <pt x="975" y="477" on="0"/>
        <pt x="1028" y="477" on="1"/>
        <pt x="1083" y="477" on="0"/>
      </contour>
      <contour>
        <pt x="341" y="918" on="1"/>
        <pt x="341" y="864" on="0"/>
        <pt x="287" y="864" on="1"/>
        <pt x="233" y="864" on="0"/>
        <pt x="233" y="915" on="1"/>
        <pt x="233" y="972" on="0"/>
        <pt x="287" y="972" on="1"/>
        <pt x="341" y="972" on="0"/>
      </contour>
      <contour>
        <pt x="984" y="272" on="1"/>
        <pt x="984" y="219" on="0"/>
        <pt x="932" y="219" on="1"/>
        <pt x="876" y="219" on="0"/>
        <pt x="876" y="272" on="1"/>
        <pt x="876" y="327" on="0"/>
        <pt x="932" y="327" on="1"/>
        <pt x="984" y="327" on="0"/>
      </contour>
      <contour>
        <pt x="836" y="174" on="1"/>
        <pt x="836" y="122" on="0"/>
        <pt x="784" y="122" on="1"/>
        <pt x="728" y="122" on="0"/>
        <pt x="728" y="174" on="1"/>
        <pt x="728" y="230" on="0"/>
        <pt x="784" y="230" on="1"/>
        <pt x="836" y="230" on="0"/>
      </contour>
      <contour>
        <pt x="242" y="770" on="1"/>
        <pt x="242" y="715" on="0"/>
        <pt x="190" y="715" on="1"/>
        <pt x="134" y="715" on="0"/>
        <pt x="134" y="770" on="1"/>
        <pt x="134" y="823" on="0"/>
        <pt x="188" y="823" on="1"/>
        <pt x="242" y="823" on="0"/>
      </contour>
      <contour>
        <pt x="206" y="596" on="1"/>
        <pt x="206" y="542" on="0"/>
        <pt x="154" y="542" on="1"/>
        <pt x="98" y="542" on="0"/>
        <pt x="98" y="596" on="1"/>
        <pt x="98" y="650" on="0"/>
        <pt x="154" y="650" on="1"/>
        <pt x="206" y="650" on="0"/>
      </contour>
      <contour>
        <pt x="662" y="141" on="1"/>
        <pt x="662" y="86" on="0"/>
        <pt x="608" y="86" on="1"/>
        <pt x="554" y="86" on="0"/>
        <pt x="554" y="141" on="1"/>
        <pt x="554" y="194" on="0"/>
        <pt x="608" y="194" on="1"/>
        <pt x="662" y="194" on="0"/>
      </contour>
      <contour>
        <pt x="242" y="422" on="1"/>
        <pt x="242" y="369" on="0"/>
        <pt x="188" y="369" on="1"/>
        <pt x="134" y="369" on="0"/>
        <pt x="134" y="422" on="1"/>
        <pt x="134" y="477" on="0"/>
        <pt x="188" y="477" on="1"/>
        <pt x="242" y="477" on="0"/>
      </contour>
      <contour>
        <pt x="489" y="178" on="1"/>
        <pt x="489" y="122" on="0"/>
        <pt x="434" y="122" on="1"/>
        <pt x="381" y="122" on="0"/>
        <pt x="381" y="174" on="1"/>
        <pt x="381" y="230" on="0"/>
        <pt x="434" y="230" on="1"/>
        <pt x="489" y="230" on="0"/>
      </contour>
      <contour>
        <pt x="341" y="272" on="1"/>
        <pt x="341" y="219" on="0"/>
        <pt x="287" y="219" on="1"/>
        <pt x="233" y="219" on="0"/>
        <pt x="233" y="272" on="1"/>
        <pt x="233" y="327" on="0"/>
        <pt x="287" y="327" on="1"/>
        <pt x="341" y="327" on="0"/>
      </contour>
    </TTGlyph>
    <TTGlyph name="uniFB1D" xMin="174" yMin="294" xMax="358" yMax="1227">
      <component glyphName="yod" x="0" y="0" flags="0x200"/>
      <component glyphName="dagesh" x="266" y="-331" flags="0x0"/>
    </TTGlyph>
    <TTGlyph name="uniFB1E" xMin="-330" yMin="1446" xMax="330" yMax="1763">
      <contour>
        <pt x="330" y="1763" on="1"/>
        <pt x="330" y="1618" on="0"/>
        <pt x="150" y="1446" on="0"/>
        <pt x="0" y="1446" on="1"/>
        <pt x="-150" y="1446" on="0"/>
        <pt x="-330" y="1621" on="0"/>
        <pt x="-330" y="1763" on="1"/>
        <pt x="-168" y="1763" on="1"/>
        <pt x="-168" y="1686" on="0"/>
        <pt x="-78" y="1593" on="0"/>
        <pt x="0" y="1593" on="1"/>
        <pt x="77" y="1593" on="0"/>
        <pt x="168" y="1689" on="0"/>
        <pt x="168" y="1763" on="1"/>
      </contour>
    </TTGlyph>
    <TTGlyph name="upper_dot" xMin="-80" yMin="1559" xMax="80" yMax="1718">
      <contour>
        <pt x="-80" y="1638" on="1"/>
        <pt x="-80" y="1670" on="0"/>
        <pt x="-32" y="1718" on="0"/>
        <pt x="0" y="1718" on="1"/>
        <pt x="32" y="1718" on="0"/>
        <pt x="80" y="1670" on="0"/>
        <pt x="80" y="1638" on="1"/>
        <pt x="80" y="1604" on="0"/>
        <pt x="32" y="1559" on="0"/>
        <pt x="0" y="1559" on="1"/>
        <pt x="-32" y="1559" on="0"/>
        <pt x="-80" y="1604" on="0"/>
      </contour>
    </TTGlyph>
    <TTGlyph name="vav" xMin="174" yMin="0" xMax="358" yMax="1227">
      <contour>
        <pt x="174" y="1227" on="1"/>
        <pt x="358" y="1227" on="1"/>
        <pt x="358" y="0" on="1"/>
        <pt x="174" y="0" on="1"/>
      </contour>
    </TTGlyph>
    <TTGlyph name="vavdagesh" xMin="-70" yMin="0" xMax="358" yMax="1227">
      <component glyphName="vav" x="0" y="0" flags="0x200"/>
      <component glyphName="dagesh" x="10" y="0" flags="0x0"/>
    </TTGlyph>
    <TTGlyph name="vavholam" xMin="174" yMin="0" xMax="358" yMax="1606">
      <component glyphName="vav" x="0" y="0" flags="0x200"/>
      <component glyphName="holam" x="266" y="0" flags="0x0"/>
    </TTGlyph>
    <TTGlyph name="vavvav" xMin="174" yMin="0" xMax="868" yMax="1227">
      <component glyphName="vav" x="0" y="0" flags="0x0"/>
      <component glyphName="vav" x="510" y="0" flags="0x0"/>
    </TTGlyph>
    <TTGlyph name="vavyod" xMin="174" yMin="0" xMax="868" yMax="1227">
      <component glyphName="yod" x="0" y="0" flags="0x0"/>
      <component glyphName="vav" x="510" y="0" flags="0x0"/>
    </TTGlyph>
    <TTGlyph name="yod" xMin="174" yMin="582" xMax="358" yMax="1227">
      <contour>
        <pt x="174" y="1227" on="1"/>
        <pt x="358" y="1227" on="1"/>
        <pt x="358" y="582" on="1"/>
        <pt x="174" y="582" on="1"/>
      </contour>
    </TTGlyph>
    <TTGlyph name="yoddagesh" xMin="-70" yMin="582" xMax="358" yMax="1227">
      <component glyphName="yod" x="0" y="0" flags="0x200"/>
      <component glyphName="dagesh" x="10" y="172" flags="0x0"/>
    </TTGlyph>
    <TTGlyph name="yodyod" xMin="174" yMin="582" xMax="868" yMax="1227">
      <component glyphName="yod" x="0" y="0" flags="0x0"/>
      <component glyphName="yod" x="510" y="0" flags="0x0"/>
    </TTGlyph>
    <TTGlyph name="yodyod_patah" xMin="174" yMin="316" xMax="868" yMax="1227">
      <component glyphName="yod" x="0" y="0" flags="0x0"/>
      <component glyphName="yod" x="510" y="0" flags="0x0"/>
      <component glyphName="patah" x="522" y="547" flags="0x0"/>
    </TTGlyph>
    <TTGlyph name="zayin" xMin="51" yMin="0" xMax="633" yMax="1245">
      <contour>
        <pt x="633" y="1049" on="1"/>
        <pt x="633" y="858" on="1"/>
        <pt x="524" y="895" on="1"/>
        <pt x="465" y="864" on="0"/>
        <pt x="419" y="810" on="0"/>
        <pt x="399" y="735" on="0"/>
        <pt x="399" y="678" on="1"/>
        <pt x="399" y="0" on="1"/>
        <pt x="215" y="0" on="1"/>
        <pt x="215" y="670" on="1"/>
        <pt x="215" y="776" on="0"/>
        <pt x="296" y="908" on="0"/>
        <pt x="393" y="940" on="1"/>
        <pt x="51" y="1055" on="1"/>
        <pt x="51" y="1245" on="1"/>
      </contour>
    </TTGlyph>
    <TTGlyph name="zayindagesh" xMin="-53" yMin="0" xMax="633" yMax="1245">
      <component glyphName="zayin" x="0" y="0" flags="0x200"/>
      <component glyphName="dagesh" x="27" y="0" flags="0x0"/>
    </TTGlyph>
</ttFont>
